<?xml version="1.0" encoding="UTF-8" standalone="no"?>
<svg
        width="793.70081"
        height="1122.5197"
        viewBox="0 0 210 297"
        version="1.1"
        id="svg1"
        xml:space="preserve"
        xmlns:xlink="http://www.w3.org/1999/xlink"
        xmlns="http://www.w3.org/2000/svg"
        xmlns:svg="http://www.w3.org/2000/svg"
>
    <defs id="defs1"/>
    <g id="layer1">
        <image
                width="239.05867"
                height="151.16321"
                preserveAspectRatio="none"
                id="image1"
                x="-8.7215796"
                y="21.087505"
                style="display:none"
        />
        <path
                style="fill:none;stroke:#f12727;stroke-width:0.264583px;stroke-linecap:butt;stroke-linejoin:miter;stroke-opacity:1"
                d="m 0.36865962,36.312972 c 0.18432978,0.245771 0.3949279,0.473882 0.5529894,0.73732 0.0316123,0.05269 -0.0274783,0.129373 0,0.18433 0.0777203,0.15544 0.29093938,0.213217 0.36865958,0.368657 0.027478,0.05496 -0.043447,0.140885 0,0.18433 0.043447,0.04345 0.1408829,-0.04345 0.1843298,0 0.043447,0.04345 -0.043447,0.140882 0,0.18433 0.043447,0.04345 0.1408829,-0.04345 0.1843298,0 0.043447,0.04345 -0.043447,0.140882 0,0.184329 0.043447,0.04345 0.1408829,-0.04345 0.1843298,0 0.043447,0.04345 -0.043447,0.140883 0,0.18433 0.043447,0.04345 0.1408829,-0.04345 0.1843298,0 0.043447,0.04345 -0.027478,0.129374 0,0.18433 0.03886,0.07772 0.1454697,0.106611 0.1843298,0.18433 0.027478,0.05496 -0.043447,0.140883 0,0.18433 0.043447,0.04345 0.1408829,-0.04345 0.1843299,0 0.086894,0.08689 -0.054957,0.258747 0,0.36866 0.03886,0.07772 0.1454696,0.106609 0.1843297,0.18433 0.028049,0.0561 0,0.469974 0,0.55299 0,0.430101 0,0.860205 0,1.290309 0,0.08301 -0.028049,0.49689 0,0.55299 0.03886,0.07772 0.1454698,0.106608 0.1843299,0.184327 0.027478,0.05496 -0.043447,0.140885 0,0.18433 0.043447,0.04345 0.1408827,-0.04344 0.1843297,0 0.043447,0.04345 -0.027478,0.129373 0,0.18433 0.03886,0.07772 0.1454697,0.106611 0.1843299,0.18433 0.027478,0.05496 -0.043447,0.140882 0,0.18433 0.043447,0.04345 0.1408829,-0.04345 0.1843296,0 0.043447,0.04345 -0.043447,0.140882 0,0.18433 0.043447,0.04345 0.140883,-0.04345 0.18433,0 0.043447,0.04345 -0.027478,0.129373 0,0.184329 0.07772,0.155441 0.2909392,0.21322 0.3686595,0.36866 0.027478,0.05496 -0.043447,0.140883 0,0.18433 0.043447,0.04345 0.140883,-0.04345 0.1843299,0 0.043447,0.04345 -0.043447,0.140883 0,0.18433 0.043447,0.04345 0.1408827,-0.04345 0.1843297,0 0.043447,0.04345 -0.043447,0.140883 0,0.18433 0.4915463,0 -0.061443,-0.06144 0.1843299,0.18433 0.043447,0.04345 0.1408829,-0.04345 0.1843299,0 0.1221153,0.122116 -0.1221155,0.246544 0,0.36866 0.043447,0.04345 0.1408827,-0.04345 0.1843297,0 0.043447,0.04345 -0.043447,0.140882 0,0.18433 0.043447,0.04345 0.1408829,-0.04345 0.1843299,0 0.043447,0.04345 -0.027478,0.129373 0,0.18433 0.03886,0.07772 0.1454695,0.106608 0.1843296,0.18433 0.027478,0.05496 -0.043447,0.140882 0,0.184329 0.043447,0.04345 0.140883,-0.04345 0.1843299,0 0.043447,0.04345 0,0.122886 0,0.18433 0,0.08301 0.028049,0.496891 0,0.55299 -0.03886,0.07772 -0.1454697,0.106609 -0.1843299,0.18433 -0.027478,0.05495 0.027478,0.129371 0,0.184327 -0.03886,0.07772 -0.1454695,0.106612 -0.1843296,0.18433 -0.027478,0.05496 0.043447,0.140883 0,0.18433 -0.043447,0.04345 -0.140883,-0.04345 -0.1843299,0 -0.043447,0.04345 0,0.122889 0,0.18433 0,0.06144 0,0.122888 0,0.18433 0,0.860205 0,1.720413 0,2.580619 0,0.08691 -0.00836,0.913294 0,0.921649 0.043447,0.04344 0.1228865,0 0.1843299,0 0,0.06144 -0.043447,0.140883 0,0.184328 0.092165,0.09217 0.4608245,-0.09217 0.5529892,0 0.043447,0.04345 -0.043447,0.140885 0,0.18433 0.092165,0.09216 0.4608245,-0.09216 0.5529895,0 0.043447,0.04345 -0.043447,0.140882 0,0.184329 0.086894,0.08689 0.2817656,-0.08689 0.3686595,0 0.043447,0.04345 -0.043447,0.140883 0,0.18433 0.043447,0.04345 0.140883,-0.04345 0.1843299,0 0.043447,0.04345 -0.027478,0.129374 0,0.18433 0.03886,0.07772 0.1454698,0.106611 0.18433,0.18433 0.027478,0.05496 -0.043447,0.140883 0,0.18433 0.043447,0.04345 0.1408826,-0.04345 0.1843296,0 0.086894,0.08689 -0.03886,0.252079 0,0.36866 0.4450593,1.335177 -0.053143,-0.290616 0.3686596,0.55299 0.024233,0.04847 0,0.640929 0,0.737319 0,0.08301 0.028049,0.49689 0,0.55299 -0.03886,0.07772 -0.1454695,0.106609 -0.1843297,0.18433 -0.00482,0.0096 -0.00482,0.543346 0,0.55299 0.03886,0.07772 0.1454695,0.106608 0.1843297,0.184327 0.027478,0.05496 -0.027478,0.129373 0,0.18433 0.07772,0.155443 0.2909395,0.21322 0.3686595,0.36866 0.027478,0.05496 -0.043447,0.140882 0,0.18433 0.043447,0.04345 0.140883,-0.04345 0.18433,0 0.043447,0.04345 -0.043447,0.140882 0,0.18433 0.043447,0.04345 0.1408829,-0.04345 0.1843299,0 0.043447,0.04345 -0.043447,0.140882 0,0.184329 0.043447,0.04345 0.1408827,-0.04345 0.1843296,0 0.043447,0.04345 -0.043447,0.140883 0,0.18433 0.043447,0.04345 0.140883,-0.04345 0.1843299,0 0.043447,0.04345 -0.043447,0.140883 0,0.18433 0.043447,0.04345 0.1408827,-0.04345 0.1843297,0 0.086894,0.08689 -0.086894,0.281766 0,0.36866 0.043447,0.04345 0.1408829,-0.04345 0.1843299,0 0.1221153,0.122116 -0.1221155,0.246544 0,0.36866 0.043447,0.04345 0.1408829,-0.04345 0.1843299,0 0.057077,0.05708 -0.057077,0.864571 0,0.92165 0.043447,0.04345 0.1408827,-0.04345 0.1843297,0 0.044355,0.04435 -0.044356,0.692962 0,0.737319 0.043447,0.04345 0.1408829,-0.04345 0.1843299,0 0.043447,0.04345 -0.019431,0.12604 0,0.18433 0.043447,0.130339 0.087179,0.271508 0.1843296,0.368657 0.381385,0.381387 -0.014909,-0.582805 0.3686596,0.18433 0.027478,0.05496 -0.043447,0.140886 0,0.18433 0.043447,0.04345 0.1293737,-0.02748 0.1843297,0 0.07772,0.03886 0.10661,0.145471 0.18433,0.18433 0.05496,0.02748 0.140883,-0.04345 0.18433,0 0.04345,0.04345 -0.02748,0.129373 0,0.18433 0.203782,0.407564 0.114403,0.0572 0.368659,0.18433 0.04894,0.02447 0.528519,0.50405 0.55299,0.55299 0.02748,0.05496 -0.04345,0.140882 0,0.18433 0.04345,0.04345 0.140883,-0.04345 0.18433,0 0.04345,0.04345 -0.04345,0.140882 0,0.184329 0.04345,0.04345 0.140882,-0.04345 0.184329,0 0.04345,0.04345 -0.02748,0.129374 0,0.18433 0.03886,0.07772 0.122887,0.122886 0.18433,0.18433 0.143978,0.143979 0.446951,0.39393 0.55299,0.55299 0.07621,0.114316 0.08718,0.27151 0.184329,0.36866 0.04345,0.04345 0.140883,-0.04345 0.18433,0 0.04345,0.04345 -0.02748,0.129373 0,0.18433 0.07772,0.15544 0.29094,0.213217 0.36866,0.36866 0.02748,0.05496 -0.04345,0.140882 0,0.184329 0.04345,0.04345 0.140883,-0.04345 0.18433,0 0.04345,0.04345 -0.04345,0.140883 0,0.18433 0.04345,0.04344 0.140882,-0.04345 0.184329,0 0.04345,0.04344 -0.04345,0.140883 0,0.18433 0.04345,0.04345 0.140883,-0.04345 0.18433,0 0.04345,0.04345 -0.02748,0.129374 0,0.184328 0.03886,0.07772 0.14547,0.106611 0.18433,0.18433 0.02748,0.05496 -0.04345,0.140885 0,0.184329 0.04345,0.04345 0.140883,-0.04344 0.18433,0 0.04345,0.04345 -0.04345,0.140883 0,0.18433 0.04345,0.04345 0.140883,-0.04345 0.18433,0 0.04345,0.04345 -0.02748,0.129374 0,0.18433 0.03886,0.07772 0.145469,0.106611 0.18433,0.18433 0.02748,0.05496 -0.04345,0.140883 0,0.18433 0.04345,0.04345 0.140882,-0.04345 0.184329,0 0.04345,0.04345 -0.04345,0.140883 0,0.18433 0.04345,0.04345 0.140883,-0.04345 0.18433,0 0.381385,0.381386 -0.582807,-0.01492 0.18433,0.36866 0.254257,0.127129 0.164878,-0.223234 0.36866,0.18433 0.02748,0.05496 -0.04345,0.140882 0,0.18433 0.08689,0.08689 0.281765,-0.08689 0.368659,0 0.04345,0.04345 -0.04345,0.140882 0,0.18433 0.04345,0.04345 0.140883,-0.04345 0.18433,0 0.04345,0.04345 -0.04345,0.140882 0,0.184329 0.04345,0.04345 0.129373,-0.02748 0.18433,0 0.15544,0.07772 0.213219,0.290939 0.368659,0.36866 0.05496,0.02748 0.129374,-0.02748 0.18433,0 0.07772,0.03886 0.10661,0.145471 0.18433,0.18433 0.05496,0.02748 0.140883,-0.04345 0.18433,0 0.04345,0.04345 -0.04345,0.140883 0,0.18433 0.04345,0.04345 0.140883,-0.04345 0.18433,0 0.04345,0.04345 -0.04345,0.140883 0,0.18433 0.04345,0.04345 0.140882,-0.04345 0.184329,0 0.04345,0.04345 -0.04345,0.140883 0,0.18433 0.381385,0.381384 -0.01491,-0.582808 0.36866,0.18433 0.02748,0.05496 -0.04345,0.140883 0,0.18433 0.381385,0.381383 -0.01491,-0.582808 0.36866,0.18433 0,0.491545 -0.06144,-0.06144 0.184329,0.18433 0.04345,0.04344 -0.04345,0.140882 0,0.184327 0.04345,0.04345 0.140883,-0.04345 0.18433,0 0.04345,0.04345 -0.04345,0.140885 0,0.18433 0.04345,0.04345 0.129374,-0.02748 0.18433,0 0.07772,0.03886 0.10661,0.14547 0.18433,0.18433 0.05496,0.02748 0.122886,0 0.18433,0 0.06144,0.06144 0.106609,0.14547 0.184329,0.18433 0.109914,0.05496 0.281766,-0.08689 0.36866,0 0.04345,0.04345 -0.04345,0.140882 0,0.18433 0.08689,0.08689 0.281766,-0.08689 0.368659,0 0.04345,0.04345 -0.04345,0.140882 0,0.184329 0.08689,0.0869 0.258747,-0.05496 0.36866,0 0.07772,0.03886 0.10661,0.145471 0.18433,0.18433 0.05496,0.02748 0.140883,-0.04345 0.18433,0 0.04345,0.04345 -0.04345,0.140883 0,0.18433 0.04345,0.04345 0.140883,-0.04345 0.18433,0 0.04345,0.04345 -0.04345,0.140883 0,0.18433 0.04345,0.04345 0.129373,-0.02748 0.184329,0 0.07772,0.03886 0.10661,0.145471 0.18433,0.18433 0.05496,0.02748 0.140883,-0.04345 0.18433,0 0.04345,0.04345 -0.02748,0.129373 0,0.18433 0.203782,0.407564 0.114403,0.0572 0.36866,0.18433 0.04894,0.02447 0.528518,0.504047 0.552989,0.55299 0,0.491545 -0.06144,-0.06144 0.18433,0.18433 0.04345,0.04345 -0.04345,0.140882 0,0.18433 0.04345,0.04345 0.140883,-0.04345 0.18433,0 0.04345,0.04345 -0.04345,0.140882 0,0.184329 0.04345,0.04345 0.140883,-0.04345 0.18433,0 0.04345,0.04345 -0.04345,0.140883 0,0.18433 0.04345,0.04345 0.140882,-0.04345 0.184329,0 0.04345,0.04345 -0.04345,0.140883 0,0.18433 0.04345,0.04345 0.140883,-0.04345 0.18433,0 0.04345,0.04345 -0.04345,0.140883 0,0.18433 0.04345,0.04345 0.140883,-0.04345 0.18433,0 0.04345,0.04345 -0.04345,0.140883 0,0.18433 0.04345,0.04345 0.140883,-0.04345 0.18433,0 0.04345,0.04345 -0.04345,0.140883 0,0.18433 0.04345,0.04345 0.129373,-0.02748 0.18433,0 0.796862,0.398431 -0.428204,-0.02977 0.368659,0.368657 0.05496,0.02748 0.140883,-0.04344 0.18433,0 0.381385,0.381386 -0.582807,-0.0149 0.18433,0.36866 0.05496,0.02748 0.140883,-0.04345 0.18433,0 0.04345,0.04345 -0.04345,0.140883 0,0.18433 0.04345,0.04345 0.129373,-0.02748 0.184329,0 0.04894,0.02447 0.528519,0.50405 0.55299,0.55299 0.02748,0.05496 -0.04345,0.140882 0,0.18433 0.04345,0.04345 0.140883,-0.04345 0.184329,0 0.04345,0.04345 -0.04345,0.140882 0,0.18433 0.04345,0.04345 0.129374,-0.02748 0.18433,0 0.08536,0.04268 0.628907,0.628906 0.73732,0.737319 0.06144,0.06144 0.106608,0.145471 0.18433,0.18433 0.05496,0.02748 0.129373,-0.02748 0.18433,0 0.181385,0.09069 0.555931,0.646626 0.737319,0.73732 0.05496,0.02748 0.122886,0 0.18433,0 0.06144,0.06144 0.106609,0.145468 0.18433,0.18433 0.05496,0.02748 0.140883,-0.04345 0.18433,0 0.04345,0.04345 -0.04345,0.140882 0,0.18433 0.04345,0.04345 0.129373,-0.02748 0.18433,0 0.15544,0.07772 0.213217,0.290938 0.368657,0.368659 0.05496,0.02748 0.129373,-0.02748 0.18433,0 0.117414,0.05871 0.776809,0.776809 0.92165,0.921647 0.245774,0.245774 0.491545,0.491549 0.737319,0.73732 0.06144,0.06144 0.145471,0.106611 0.18433,0.18433 0.02748,0.05496 -0.04345,0.140883 0,0.18433 0.04345,0.04345 0.140883,-0.04345 0.18433,0 0.04345,0.04345 -0.04345,0.140882 0,0.18433 0.04345,0.04345 0.140883,-0.04345 0.18433,0 0.04345,0.04345 -0.04345,0.140882 0,0.18433 0.491545,0 -0.06144,-0.06144 0.18433,0.18433 0.04345,0.04345 0.140883,-0.04345 0.18433,0 0.04345,0.04345 -0.02748,0.129373 0,0.184329 0.03886,0.07772 0.145468,0.106609 0.18433,0.18433 0.02748,0.05496 -0.04345,0.140883 0,0.18433 0.04345,0.04345 0.140882,-0.04345 0.18433,0 0.08689,0.08689 -0.08689,0.281766 0,0.36866 0.491545,0 -0.06144,-0.06144 0.184329,0.18433 0.04345,0.04345 0.140883,-0.04345 0.18433,0 0.04345,0.04345 -0.02748,0.129373 0,0.18433 0.03886,0.07772 0.145468,0.106609 0.18433,0.18433 0.02748,0.05496 -0.04345,0.140883 0,0.18433 0.04344,0.04345 0.140883,-0.04345 0.18433,0 0.04344,0.04345 -0.02748,0.129373 0,0.18433 0.07772,0.15544 0.290939,0.213217 0.368657,0.36866 0.02748,0.05495 -0.04344,0.140882 0,0.184327 0.491549,0 -0.06144,-0.06144 0.18433,0.18433 0.04345,0.04345 0.140883,-0.04345 0.18433,0 0.04345,0.04345 -0.04345,0.140882 0,0.18433 0.04345,0.04345 0.140883,-0.04345 0.18433,0 0.04345,0.04345 -0.04345,0.140882 0,0.18433 0.04345,0.04345 0.140883,-0.04345 0.18433,0 0.04345,0.04345 -0.04345,0.140882 0,0.184329 0.04345,0.04345 0.140883,-0.04345 0.18433,0 0.04345,0.04345 -0.04345,0.140883 0,0.18433 0.04345,0.04345 0.140883,-0.04345 0.18433,0 0.122706,0.122706 -0.122706,0.245954 0,0.36866 0.04345,0.04345 0.140883,-0.04345 0.18433,0 0.08689,0.0869 -0.05496,0.258747 0,0.36866 0.03886,0.07772 0.14547,0.106609 0.18433,0.18433 0.02748,0.05496 -0.04345,0.140883 0,0.18433 0.04345,0.04345 0.140882,-0.04345 0.18433,0 0.04345,0.04345 -0.04345,0.140883 0,0.18433 0.04345,0.04345 0.140882,-0.04345 0.18433,0 0.04345,0.04345 -0.04345,0.140882 0,0.18433 0.04345,0.04345 0.129373,-0.02748 0.184329,0 0.04894,0.02447 0.528519,0.504047 0.55299,0.552989 0.02748,0.05496 -0.02748,0.129374 0,0.18433 0.07772,0.15544 0.290939,0.21322 0.36866,0.36866 0.02748,0.05496 -0.02748,0.129373 0,0.18433 0.03298,0.06596 0.918771,0.919729 0.92165,0.921647 0.05112,0.03408 0.129373,-0.02748 0.18433,0 0.07772,0.03886 0.106608,0.145471 0.184329,0.18433 0.0561,0.02805 0.469975,0 0.552988,0 0.06144,0 0.184329,0.06144 0.184329,0 0,-0.650073 -0.368659,0.281278 -0.368659,-0.36866 0,-0.06144 -0.02748,-0.129373 0,-0.184327 0.03886,-0.07772 0.106611,-0.145471 0.18433,-0.18433 0.03781,-0.01892 0.526994,-0.02601 0.552989,0 0.04345,0.04344 -0.04345,0.140883 0,0.18433 0.04345,0.04344 0.140883,-0.04345 0.18433,0 0.04345,0.04344 -0.04345,0.140882 0,0.184327 0.04345,0.04345 0.140883,-0.04344 0.18433,0 0.04345,0.04345 -0.04345,0.140885 0,0.18433 0.04345,0.04345 0.140883,-0.04344 0.18433,0 0.04345,0.04345 -0.02748,0.129373 0,0.18433 0.07772,0.155443 0.290939,0.21322 0.36866,0.36866 0.02748,0.05496 -0.02748,0.129373 0,0.18433 0.383569,0.767138 -0.01273,-0.197054 0.36866,0.18433 0.04345,0.04345 -0.04345,0.140882 0,0.184329 0.04345,0.04345 0.140882,-0.04345 0.18433,0 0.381383,0.381387 -0.582806,-0.0149 0.18433,0.36866 0.05496,0.02748 0.140882,-0.04345 0.184329,0 0.04345,0.04345 -0.04345,0.140883 0,0.18433 0.0869,0.08689 0.281766,-0.08689 0.36866,0 0.04345,0.04345 -0.04345,0.140883 0,0.18433 0.04345,0.04345 0.140883,-0.04345 0.18433,0 0.04345,0.04345 -0.04345,0.140883 0,0.18433 0.08689,0.08689 0.281766,-0.08689 0.36866,0 0.04345,0.04345 -0.04345,0.140883 0,0.18433 0.04345,0.04345 0.129373,-0.02748 0.18433,0 0.07772,0.03886 0.106608,0.145471 0.18433,0.18433 0.10991,0.05496 0.281765,-0.0869 0.368657,0 0.08689,0.08689 -0.05496,0.258747 0,0.36866 0.110598,0.221194 0.442394,0.331792 0.55299,0.552989 0.05496,0.109914 -0.08689,0.281766 0,0.36866 0.04345,0.04345 0.140882,-0.04345 0.18433,0 0.04345,0.04345 0,0.122886 0,0.18433 0,0.0447 0.0059,0.547061 0,0.552987 -0.04345,0.04345 -0.140883,-0.04344 -0.18433,0 -0.04345,0.04345 -0.04345,0.140883 0,0.18433 0.04345,0.04345 0.140882,-0.04345 0.18433,0 0.08689,0.08689 -0.05496,0.258747 0,0.36866 0.03886,0.07772 0.122888,0.122888 0.18433,0.18433 0.06144,0.06144 0.106611,0.145471 0.184329,0.18433 0.05496,0.02748 0.140883,-0.04345 0.18433,0 0.04345,0.04345 -0.04345,0.140883 0,0.18433 0.04345,0.04345 0.140883,-0.04345 0.18433,0 0.04345,0.04345 -0.04345,0.140882 0,0.18433 0.04345,0.04345 0.129374,-0.02748 0.18433,0 0.07772,0.03886 0.122886,0.122885 0.18433,0.18433 0.06144,0.06144 0.145471,0.106608 0.18433,0.18433 0.02748,0.05496 -0.04345,0.140882 0,0.184329 0.491546,0 -0.06144,-0.06144 0.18433,0.18433 0.04345,0.04345 0.140883,-0.04345 0.18433,0 0.04345,0.04345 -0.04345,0.140883 0,0.18433 0.04345,0.04345 0.140883,-0.04345 0.18433,0 0.04345,0.04345 -0.04345,0.140883 0,0.18433 0.05044,0.05044 0.637323,-0.05 0.737319,0 0.07772,0.03886 0.106609,0.145471 0.18433,0.18433 0.109914,0.05496 0.281766,-0.08689 0.36866,0 0.04344,0.04345 -0.04345,0.140883 0,0.18433 0.04344,0.04345 0.129374,-0.02748 0.18433,0 0.07772,0.03886 0.106609,0.145468 0.18433,0.18433 0.05495,0.02748 0.140883,-0.04345 0.184327,0 0.04436,0.04436 -0.04435,0.692962 0,0.73732 0.04345,0.04344 0.140886,-0.04345 0.18433,0 0.08689,0.08689 -0.08689,0.281765 0,0.368659 0.04345,0.04345 0.140883,-0.04345 0.18433,0 0.04345,0.04345 0.04345,0.140883 0,0.184328 -0.04345,0.04345 -0.140883,-0.04345 -0.18433,0 -0.08689,0.08689 0.05496,0.258746 0,0.36866 -0.03886,0.07772 -0.145468,0.106611 -0.18433,0.184329 -0.02424,0.04847 0,0.64093 0,0.73732 0,0.06144 -0.04344,0.140883 0,0.18433 0.04345,0.04345 0.140886,-0.04345 0.18433,0 0.04345,0.04345 -0.04344,0.140883 0,0.18433 0.04345,0.04345 0.140883,-0.04345 0.18433,0 0.04345,0.04345 -0.04345,0.140883 0,0.18433 0.04345,0.04345 0.140883,-0.04345 0.18433,0 0.04345,0.04345 -0.04345,0.140883 0,0.18433 0.04345,0.04345 0.140883,-0.04345 0.18433,0 0.04345,0.04345 -0.04345,0.140882 0,0.18433 0.04345,0.04345 0.140883,-0.04345 0.18433,0 0.04345,0.04345 -0.04345,0.140882 0,0.18433 0.04345,0.04345 0.140883,-0.04345 0.18433,0 0.04345,0.04345 -0.04345,0.140882 0,0.184329 0.04345,0.04345 0.140882,-0.04345 0.18433,0 0.08689,0.0869 -0.08689,0.281766 0,0.36866 0.04345,0.04345 0.140882,-0.04345 0.18433,0 0.08689,0.08689 -0.0869,0.281766 0,0.36866 0.04345,0.04345 0.140882,-0.04345 0.18433,0 0.04345,0.04345 -0.04345,0.140883 0,0.18433 0.491545,0 -0.06144,-0.06144 0.184329,0.18433 0.04345,0.04345 0.140883,-0.04345 0.18433,0 0.04345,0.04345 -0.04345,0.140883 0,0.18433 0.04345,0.04344 0.140883,-0.04345 0.18433,0 0.04345,0.04344 -0.04345,0.140883 0,0.18433 0.04345,0.04344 0.140883,-0.04345 0.18433,0 0.09217,0.09216 -0.09217,0.460822 0,0.552987 0.245774,0.245774 0.18433,-0.307216 0.18433,0.18433 0,0.06144 0,0.122888 0,0.18433 0,0.06144 -0.04345,0.140887 0,0.184327 0.04345,0.0434 0.140883,-0.0434 0.18433,0 0.04345,0.0434 -0.04345,0.14089 0,0.18433 0.08689,0.0869 0.281765,-0.0869 0.36866,0 0.04345,0.0435 -0.04345,0.14089 0,0.18433 0.09216,0.0922 0.460825,-0.0922 0.55299,0 0.04345,0.0435 -0.04345,0.14089 0,0.18433 0.04345,0.0435 0.140882,-0.0434 0.18433,0 0.144094,0.1441 -0.160335,0.32067 -0.18433,0.36866 -0.05496,0.10992 0.08689,0.28177 0,0.36866 -0.04345,0.0435 -0.140883,-0.0434 -0.18433,0 -0.09217,0.0922 0.09217,0.46083 0,0.55299 -0.04345,0.0434 -0.140883,-0.0435 -0.18433,0 -0.122706,0.12271 0.122706,0.24596 0,0.36866 -0.04345,0.0435 -0.140883,-0.0434 -0.18433,0 -0.04345,0.0435 0,0.12289 0,0.18433 0,0.0614 0,0.12289 0,0.18433 0,0.13066 0.02384,1.05832 0,1.10598 -0.03886,0.0777 -0.145471,0.10661 -0.18433,0.18433 -0.03402,0.068 0,0.94541 0,1.10598 0,0.49154 0,0.98309 0,1.47464 0,0.0614 -0.04345,0.14088 0,0.18433 0.04345,0.0434 0.140883,-0.0435 0.18433,0 0.04345,0.0434 -0.02748,0.12937 0,0.18433 0.03886,0.0777 0.145468,0.10661 0.18433,0.18433 0.01259,0.0252 0.01259,1.0808 0,1.10597 -0.03886,0.0777 -0.145471,0.10661 -0.18433,0.18433 -0.02748,0.055 0.04345,0.14089 0,0.18433 -0.04345,0.0434 -0.140883,-0.0434 -0.18433,0 -0.04345,0.0434 0.04345,0.14089 0,0.18433 -0.04345,0.0434 -0.140883,-0.0434 -0.18433,0 -0.09216,0.0922 0.09217,0.46083 0,0.55299 -0.04345,0.0435 -0.140883,-0.0434 -0.18433,0 -0.0074,0.007 0,0.66963 0,0.73732 0,0.43229 -0.04345,-0.0869 0.18433,0.36866 0.05496,0.10992 -0.05496,0.25875 0,0.36866 0.03886,0.0777 0.145471,0.10661 0.18433,0.18433 0.02748,0.055 0,0.12289 0,0.18433 0,0.0614 0.04345,0.14088 0,0.18433 -0.04345,0.0434 -0.129373,-0.0275 -0.18433,0 -0.07772,0.0389 -0.106611,0.14547 -0.18433,0.18433 -0.109913,0.055 -0.281765,-0.0869 -0.36866,0 -0.04345,0.0434 0.04345,0.14088 0,0.18433 -0.04435,0.0444 -0.692965,-0.0444 -0.737319,0 -0.04345,0.0434 0.04345,0.14088 0,0.18433 -0.491546,0 0.06144,-0.0614 -0.18433,0.18433 -0.04345,0.0435 -0.140883,-0.0434 -0.18433,0 -0.08689,0.0869 0.05496,0.25875 0,0.36866 -0.03886,0.0777 -0.145468,0.10661 -0.18433,0.18433 -0.05,0.1 0.05044,0.68688 0,0.73732 -0.04345,0.0434 -0.140883,-0.0435 -0.18433,0 -0.09217,0.0922 0.09217,0.46082 0,0.55299 -0.04345,0.0435 -0.140883,-0.0434 -0.18433,0 -0.05708,0.0571 0.05708,0.86457 0,0.92165 -0.04345,0.0435 -0.140883,-0.0434 -0.18433,0 -0.05708,0.0571 0.05708,0.86457 0,0.92165 -0.04345,0.0434 -0.140883,-0.0434 -0.18433,0 -0.04344,0.0434 0.04345,0.14088 0,0.18433 -0.08689,0.0869 -0.281765,-0.0869 -0.368657,0 -0.04345,0.0434 0.04344,0.14088 0,0.18433 -0.09217,0.0922 -0.460825,-0.0922 -0.55299,0 -0.04345,0.0434 0.04345,0.14088 0,0.18433 -0.04345,0.0434 -0.140882,-0.0435 -0.18433,0 -0.08689,0.0869 0.05496,0.25874 0,0.36866 -0.03886,0.0777 -0.14547,0.10661 -0.18433,0.18432 -0.02748,0.055 0.04345,0.14089 0,0.18433 -0.04345,0.0435 -0.140882,-0.0434 -0.184329,0 -0.04345,0.0435 0.04345,0.14089 0,0.18433 -0.04345,0.0434 -0.140883,-0.0434 -0.18433,0 -0.04345,0.0434 0.04345,0.14089 0,0.18433 -0.04345,0.0434 -0.140883,-0.0434 -0.18433,0 -0.04345,0.0434 0.04345,0.14089 0,0.18433 -0.04345,0.0434 -0.129374,-0.0275 -0.18433,0 -0.07772,0.0389 -0.106609,0.14547 -0.18433,0.18433 -0.127323,0.0637 -0.856946,-0.0647 -0.92165,0 -0.04345,0.0435 0,0.12289 0,0.18433 0,0.21337 0.04114,0.75709 0,0.92165 -0.03332,0.13329 -0.140882,0.23832 -0.18433,0.36866 -0.03467,0.104 0,0.43187 0,0.55299 0,0.30722 0,0.61443 0,0.92165 0,0.0614 0,0.12289 0,0.18433 0,0.0614 -0.04345,0.14089 0,0.18433 0.04345,0.0434 0.140883,-0.0434 0.18433,0 0.04345,0.0434 -0.04345,0.14088 0,0.18433 0.04345,0.0434 0.140883,-0.0435 0.18433,0 0.04345,0.0434 -0.04345,0.14088 0,0.18433 0.08689,0.0869 0.281766,-0.0869 0.36866,0 0.04345,0.0435 -0.04345,0.14088 0,0.18433 0.04345,0.0435 0.140883,-0.0434 0.18433,0 0.04345,0.0435 -0.02748,0.12937 0,0.18433 0.03886,0.0777 0.145471,0.10661 0.18433,0.18433 0.03333,0.0667 0,0.79344 0,0.92165 0,0.0614 0.04345,0.14088 0,0.18433 -0.04345,0.0434 -0.140883,-0.0435 -0.18433,0 -0.08689,0.0869 0.08689,0.28176 0,0.36866 -0.08689,0.0869 -0.281765,-0.0869 -0.36866,0 -0.04345,0.0435 0.04345,0.14088 0,0.18433 -0.04345,0.0435 -0.140883,-0.0434 -0.18433,0 -0.04345,0.0435 0.02748,0.12937 0,0.18433 -0.227777,0.45555 -0.18433,-0.0636 -0.18433,0.36866 0,0.43229 -0.04345,-0.0869 0.18433,0.36866 0.02748,0.055 -0.04345,0.14088 0,0.18433 0.04345,0.0434 0.140883,-0.0435 0.18433,0 0.245774,0.24577 -0.307215,0.18433 0.18433,0.18433 0.06144,0 0.122886,0 0.18433,0 0.06144,0 0.227777,0.0434 0.18433,0 -0.331621,-0.33162 -0.546224,-0.0905 -0.92165,-0.18433 -0.133289,-0.0333 -0.231267,-0.18433 -0.36866,-0.18433 -0.223467,0 0.04588,0.23021 0.18433,0.36866 0.06144,0.0614 0.145471,0.10661 0.18433,0.18433 0.05496,0.10991 -0.05496,0.25874 0,0.36866 0.03886,0.0777 0.145471,0.10661 0.18433,0.18432 0.05,0.1 -0.05044,0.68689 0,0.73732 0.04345,0.0435 0.140883,-0.0434 0.18433,0 0.09216,0.0922 -0.09217,0.46083 0,0.55299 0.04345,0.0434 0.122886,0 0.18433,0 0.225007,0 0.425061,-0.0715 0.55299,0.18433 0.02384,0.0477 0,0.97533 0,1.10598 0,0.0614 0.04345,0.14089 0,0.18433 -0.04345,0.0435 -0.140883,-0.0434 -0.18433,0 -0.04345,0.0435 0.04345,0.14089 0,0.18433 -0.04345,0.0434 -0.140883,-0.0434 -0.18433,0 -0.04345,0.0434 0.04345,0.14089 0,0.18433 -0.125219,0.12522 -0.366588,-0.18847 -0.55299,0.18433 -0.02424,0.0485 0,0.64093 0,0.73732 0,0.12821 -0.03333,0.85499 0,0.92165 0.186402,0.3728 0.427771,0.0591 0.55299,0.18433 0.04345,0.0435 -0.02748,0.12937 0,0.18433 0.03886,0.0777 0.145471,0.10661 0.18433,0.18433 0.05,0.1 -0.05044,0.68688 0,0.73732 0.04345,0.0435 0.140883,-0.0435 0.18433,0 0.04345,0.0435 -0.04345,0.14088 0,0.18433 0.04345,0.0435 0.140882,-0.0435 0.18433,0 0.04345,0.0435 -0.04345,0.14088 0,0.18433 0.04345,0.0434 0.140882,-0.0435 0.18433,0 0.04345,0.0434 -0.04345,0.14088 0,0.18433 0.04345,0.0435 0.140882,-0.0435 0.18433,0 0.04345,0.0435 -0.04345,0.14088 0,0.18433 0.08689,0.0869 0.281765,-0.0869 0.368659,0 0.04345,0.0435 -0.04345,0.14088 0,0.18433 0.04345,0.0435 0.122886,0 0.18433,0 0.06144,0 0.122886,0 0.18433,0 0.36866,0 0.737317,0 1.105977,0 0.08302,0 0.496893,-0.0281 0.55299,0 0.07772,0.0389 0.106611,0.14547 0.18433,0.18433 0.04766,0.0238 0.975325,0 1.105979,0 0.55299,0 1.10598,0 1.658969,0 0.148392,0 0.621623,-0.0386 0.737317,0 0.130342,0.0435 0.235371,0.15101 0.36866,0.18433 0.119219,0.0298 0.245774,0 0.36866,0 0.36866,0 0.73732,0 1.10598,0 0.122885,0 0.249441,-0.0298 0.368659,0 0.13329,0.0333 0.235371,0.151 0.36866,0.18433 0.149897,0.0375 0.913014,0 1.10598,0 0.122885,0 0.252079,-0.0389 0.368657,0 0.08244,0.0275 0.101896,0.15685 0.18433,0.18433 0.174871,0.0583 0.36866,0 0.55299,0 0.368659,0 0.737319,0 1.105979,0 0.0628,0 0.637559,-0.0333 0.73732,0 0.130341,0.0435 0.238318,0.14088 0.36866,0.18433 0.121914,0.0406 0.924898,0 1.105979,0 0.06144,0 0.122886,0 0.184327,0 0.06144,0 0.129374,-0.0275 0.18433,0 0.07772,0.0389 0.101897,0.15685 0.18433,0.18433 0.174871,0.0583 0.36866,0 0.55299,0 0.307218,0 0.614434,0 0.921649,0 0.08302,0 0.496893,-0.0281 0.55299,0 0.07772,0.0389 0.106609,0.14547 0.18433,0.18433 0.04847,0.0242 0.640929,0 0.73732,0 0.552989,0 1.105977,0 1.658966,0 0.214133,0 0.754547,-0.0418 0.92165,0 0.133289,0.0333 0.235371,0.151 0.36866,0.18433 0.119218,0.0298 0.245774,0 0.36866,0 0.307215,0 0.614433,0 0.921649,0 0.92165,0 1.843297,0 2.764946,0 1.044536,0 2.089071,0 3.133606,0 0.36866,0 0.73732,0 1.10598,0 0.06144,0 0.122885,0 0.18433,0 0.06144,0 0.129373,0.0275 0.184329,0 0.07772,-0.0389 0.106609,-0.14547 0.18433,-0.18433 0.147463,-0.0737 0.405527,0.0737 0.55299,0 0.07772,-0.0389 0.106609,-0.14547 0.18433,-0.18433 0.05496,-0.0275 0.122886,0 0.18433,0 0.06144,-0.0615 0.106608,-0.14547 0.18433,-0.18433 0.109913,-0.055 0.258746,0.055 0.36866,0 0.07772,-0.0389 0.106608,-0.14547 0.18433,-0.18433 0.05496,-0.0275 0.129373,0.0275 0.184329,0 0.07772,-0.0389 0.106609,-0.14547 0.18433,-0.18433 0.109914,-0.055 0.258747,0.055 0.36866,0 0.07772,-0.0389 0.106609,-0.14547 0.184327,-0.18433 0.05496,-0.0275 0.129374,0.0275 0.18433,0 0.07772,-0.0389 0.106612,-0.14547 0.18433,-0.18433 0.109914,-0.055 0.281768,0.0869 0.36866,0 0.04345,-0.0435 -0.04345,-0.14088 0,-0.18433 0.04345,-0.0435 0.129373,0.0275 0.18433,0 0.07772,-0.0389 0.122888,-0.12289 0.18433,-0.18433 0.06144,-0.0614 0.145471,-0.10661 0.18433,-0.18433 0.02748,-0.055 -0.04345,-0.14088 0,-0.18433 0.04345,-0.0435 0.140883,0.0434 0.18433,0 0.04345,-0.0435 -0.04345,-0.14088 0,-0.18433 0.04345,-0.0435 0.140882,0.0435 0.18433,0 0.08689,-0.0869 -0.08689,-0.28177 0,-0.36866 0.04345,-0.0434 0.140882,0.0435 0.18433,0 0.04345,-0.0434 -0.02748,-0.12937 0,-0.18433 0.03886,-0.0777 0.14547,-0.10661 0.18433,-0.18433 0.05496,-0.10991 -0.05496,-0.25875 0,-0.36866 0.03886,-0.0777 0.14547,-0.10661 0.184329,-0.18433 0.03654,-0.0731 -0.03768,-0.51531 0,-0.55299 0.04345,-0.0434 0.140883,0.0435 0.18433,0 0.09216,-0.0922 -0.09217,-0.46082 0,-0.55299 0.04345,-0.0434 0.129374,0.0275 0.18433,0 0.407564,-0.20378 0.0572,-0.1144 0.18433,-0.36866 0.203782,-0.40756 0.114403,-0.0572 0.36866,-0.18433 0.15544,-0.0777 0.21322,-0.29094 0.36866,-0.36866 0.05496,-0.0275 0.122886,0 0.18433,0 0.06144,-0.0614 0.106608,-0.14547 0.18433,-0.18433 0.05496,-0.0275 0.140882,0.0434 0.18433,0 0.0059,-0.006 0,-0.50828 0,-0.55299 0,-0.0614 0,-0.12288 0,-0.18433 0,-0.0614 -0.04345,-0.14088 0,-0.18433 0.04344,-0.0434 0.140882,0.0435 0.18433,0 0.05043,-0.0504 -0.05,-0.63732 0,-0.73732 0.03886,-0.0777 0.145467,-0.1066 0.184327,-0.18433 0.02748,-0.055 0,-0.12288 0,-0.18433 0,-0.12288 -0.03886,-0.25207 0,-0.36866 0.02748,-0.0824 0.14547,-0.1066 0.18433,-0.18433 0.02748,-0.055 -0.02748,-0.12937 0,-0.18433 0.03886,-0.0777 0.14547,-0.1066 0.18433,-0.18433 0.02748,-0.0549 -0.02748,-0.12937 0,-0.18432 0.611346,-0.61135 -0.08689,0.17378 0.18433,-0.36866 0.03886,-0.0777 0.14547,-0.10661 0.184329,-0.18433 0.02748,-0.055 -0.02748,-0.12938 0,-0.18433 0.03886,-0.0777 0.145471,-0.10661 0.18433,-0.18433 0.05496,-0.10992 -0.08689,-0.28177 0,-0.36866 0.04345,-0.0435 0.140883,0.0434 0.18433,0 0.05044,-0.0504 -0.05,-0.63732 0,-0.73732 0.03886,-0.0777 0.145471,-0.10661 0.18433,-0.18433 0.02748,-0.055 -0.04345,-0.14088 0,-0.18433 0.0869,-0.0869 0.281766,0.0869 0.36866,0 0.04345,-0.0435 -0.05496,-0.15685 0,-0.18433 0.147463,-0.0737 0.405527,0.0737 0.55299,0 0.07772,-0.0389 0.106608,-0.14547 0.18433,-0.18433 0.05496,-0.0275 0.140882,0.0435 0.18433,0 0.04345,-0.0434 -0.04345,-0.14088 0,-0.18433 0.08689,-0.0869 0.281765,0.0869 0.368659,0 0.04345,-0.0434 -0.04345,-0.14088 0,-0.18433 0.04345,-0.0435 0.140883,0.0434 0.18433,0 0.04345,-0.0435 -0.04345,-0.14088 0,-0.18433 0.04345,-0.0435 0.140883,0.0434 0.18433,0 0.0647,-0.0647 -0.06366,-0.79433 0,-0.92165 0.03886,-0.0777 0.156851,-0.10189 0.18433,-0.18433 0.004,-0.0121 0.004,-0.90954 0,-0.92165 -0.02748,-0.0824 -0.14547,-0.10661 -0.18433,-0.18433 -0.05906,-0.11811 0.05724,-0.9915 0,-1.10598 -0.03886,-0.0777 -0.14547,-0.10661 -0.18433,-0.18433 -0.03654,-0.0731 0.03768,-0.5153 0,-0.55299 -0.04345,-0.0434 -0.140882,0.0434 -0.18433,0 -0.04345,-0.0434 0.04345,-0.14088 0,-0.18433 -0.491545,0 0.06144,0.0615 -0.18433,-0.18433 -0.08689,-0.0869 -0.281765,0.0869 -0.368659,0 -0.04345,-0.0434 0.04345,-0.14088 0,-0.18433 -0.08689,-0.0869 -0.281766,0.0869 -0.36866,0 -0.04345,-0.0434 0,-0.12288 0,-0.18433 0,-0.30721 0,-0.61443 0,-0.92164 0,-0.0615 -0.04345,-0.14089 0,-0.18433 0.04345,-0.0435 0.140883,0.0434 0.18433,0 0.04345,-0.0435 0,-0.12289 0,-0.18433 0,-0.0615 0,-0.12289 0,-0.18433 0,-0.49155 0,-0.9831 0,-1.47464 0,-0.083 0.02805,-0.49689 0,-0.55299 -0.04922,-0.0984 -0.455946,-0.45595 -0.55299,-0.55299 -0.09704,-0.097 -0.454541,-0.50377 -0.55299,-0.55299 -0.05496,-0.0275 -0.140882,0.0435 -0.18433,0 -0.04345,-0.0434 0.04345,-0.14088 0,-0.18433 -0.04345,-0.0435 -0.129373,0.0275 -0.18433,0 -0.15544,-0.0777 -0.213217,-0.29094 -0.368659,-0.36866 -0.05496,-0.0275 -0.140883,0.0434 -0.18433,0 -0.04345,-0.0435 0.04345,-0.14088 0,-0.18433 -0.04345,-0.0434 -0.140883,0.0435 -0.18433,0 -0.08689,-0.0869 0.08689,-0.28177 0,-0.36866 -0.04345,-0.0435 -0.140883,0.0434 -0.184327,0 -0.04345,-0.0435 0.02748,-0.12937 0,-0.18433 -0.04268,-0.0854 -0.62891,-0.6289 -0.73732,-0.73732 -0.06144,-0.0614 -0.145471,-0.10661 -0.18433,-0.18433 -0.02748,-0.055 0.04345,-0.14088 0,-0.18433 -0.04345,-0.0434 -0.140883,0.0434 -0.18433,0 -0.04345,-0.0434 0.02748,-0.12937 0,-0.18433 -0.07772,-0.15544 -0.290941,-0.21322 -0.36866,-0.36866 -0.02748,-0.055 0.04345,-0.14088 0,-0.18433 -0.04345,-0.0434 -0.140882,0.0434 -0.18433,0 -0.04345,-0.0434 0.04345,-0.14088 0,-0.18433 -0.04345,-0.0434 -0.140882,0.0434 -0.18433,0 -0.04345,-0.0434 0.04345,-0.14088 0,-0.18433 -0.08689,-0.0869 -0.281765,0.0869 -0.368659,0 -0.04345,-0.0434 0.04345,-0.14088 0,-0.18433 -0.08689,-0.0869 -0.281766,0.0869 -0.36866,0 -0.04345,-0.0434 0.04345,-0.14088 0,-0.18433 -0.08689,-0.0869 -0.281766,0.0869 -0.36866,0 -0.04345,-0.0434 0.04345,-0.14088 0,-0.18433 -0.08689,-0.0869 -0.258747,0.055 -0.36866,0 -0.07772,-0.0389 -0.106609,-0.14546 -0.18433,-0.18433 -0.05496,-0.0275 -0.129373,0.0275 -0.18433,0 -0.07772,-0.0389 -0.106608,-0.14546 -0.18433,-0.18433 -0.05496,-0.0275 -0.129373,0.0275 -0.18433,0 -0.15544,-0.0777 -0.213217,-0.29093 -0.368657,-0.36865 -0.254256,-0.12713 -0.16488,0.22323 -0.36866,-0.18433 -0.02748,-0.055 0.04345,-0.14089 0,-0.18433 -0.04345,-0.0435 -0.140882,0.0434 -0.18433,0 -0.04345,-0.0435 0.04345,-0.14089 0,-0.18433 -0.04345,-0.0435 -0.140882,0.0434 -0.184329,0 -0.04345,-0.0435 0.02748,-0.12938 0,-0.18433 -0.03886,-0.0777 -0.145471,-0.10661 -0.18433,-0.18433 -0.05496,-0.10992 0.05496,-0.25875 0,-0.36866 -0.03886,-0.0777 -0.145471,-0.10661 -0.18433,-0.18433 -0.02748,-0.055 0,-0.12289 0,-0.18433 0,-0.0614 0,-0.12289 0,-0.18433 0,-0.36866 0,-0.73732 0,-1.10598 0,-0.0729 -0.03936,-0.84293 0,-0.92165 0.03886,-0.0777 0.145468,-0.10661 0.18433,-0.18433 0.01889,-0.0378 0.02598,-0.52699 0,-0.55299 -0.04345,-0.0434 -0.140883,0.0435 -0.18433,0 -0.03768,-0.0377 0.03654,-0.47991 0,-0.55299 -0.03886,-0.0777 -0.145471,-0.10661 -0.18433,-0.18433 -0.05496,-0.10991 0.08689,-0.28176 0,-0.36866 -0.04345,-0.0434 -0.140883,0.0435 -0.18433,0 -0.04345,-0.0434 0,-0.12289 0,-0.18433 0,-0.13065 -0.02384,-1.05832 0,-1.10598 0.03886,-0.0777 0.14547,-0.10661 0.18433,-0.18433 0.05496,-0.10991 -0.05496,-0.25874 0,-0.36866 0.03886,-0.0777 0.145468,-0.10661 0.18433,-0.18433 0.02748,-0.0549 0,-0.12288 0,-0.18433 0,-0.0614 0.04345,-0.14088 0,-0.184327 -0.04345,-0.04345 -0.140883,0.04345 -0.18433,0 -0.08689,-0.08689 0.05496,-0.258747 0,-0.36866 -0.03886,-0.07772 -0.145471,-0.106609 -0.18433,-0.18433 -0.02748,-0.05496 0.04345,-0.140883 0,-0.184327 -0.122886,-0.122889 -0.307216,0.06144 -0.18433,0.184327 0.04345,0.04345 0.140883,-0.04345 0.18433,0 0.04345,0.04345 -0.06144,0.18433 0,0.18433 0.06144,0 0,-0.122886 0,-0.18433 0,-0.184327 0,-0.368657 0,-0.552987 0,-0.333132 -0.04138,-1.00066 0,-1.29031 0.229036,-1.603255 0.18433,0.01596 0.18433,-1.290309 0,-0.430101 0,-0.860205 0,-1.290309 0,-0.06144 -0.04345,-0.140883 0,-0.184328 0.09216,-0.09216 0.460825,0.09216 0.55299,0 0.04345,-0.04345 -0.04345,-0.140885 0,-0.18433 0.04345,-0.04345 0.140882,0.04345 0.184329,0 0.04345,-0.04345 0,-0.122888 0,-0.184329 0,-0.12821 -0.03333,-0.854991 0,-0.92165 0.03886,-0.07772 0.145468,-0.106611 0.18433,-0.18433 0.04101,-0.08202 -0.0281,-0.65301 0,-0.73732 0.05496,-0.164869 0.272259,-0.224059 0.36866,-0.368659 0.07621,-0.114316 0.08718,-0.271511 0.184327,-0.36866 0.04345,-0.04345 0.129374,0.02748 0.18433,0 0.843606,-0.421802 -0.782187,0.0764 0.55299,-0.36866 0.54872,-0.182907 -0.378208,0.43647 0.55299,-0.18433 0.1446,-0.0964 0.21322,-0.290938 0.36866,-0.36866 0.108759,-0.05438 0.426201,0.04226 0.552989,0 0.130342,-0.04345 0.238319,-0.140882 0.36866,-0.18433 0.05829,-0.01942 0.12604,0.01942 0.18433,0 0.130342,-0.04344 0.238318,-0.140882 0.36866,-0.18433 0.05829,-0.01942 0.133205,0.03408 0.18433,0 0.1446,-0.0964 0.22406,-0.272259 0.36866,-0.368657 0.05112,-0.03408 0.140882,0.04344 0.18433,0 0.04344,-0.04345 -0.02748,-0.129373 0,-0.18433 0.03886,-0.07772 0.145468,-0.106611 0.18433,-0.18433 0.02748,-0.05496 -0.04345,-0.140882 0,-0.18433 0.04344,-0.04345 0.129373,0.02748 0.18433,0 0.07772,-0.03886 0.122885,-0.122888 0.184327,-0.184329 0.06144,-0.06145 0.136131,-0.11203 0.18433,-0.18433 0.07621,-0.114316 0.108119,-0.254344 0.18433,-0.36866 0.0964,-0.1446 0.245774,-0.245774 0.368659,-0.36866 0.611347,-0.611346 -0.08689,0.173789 0.18433,-0.36866 0.203782,-0.407564 0.114404,-0.0572 0.36866,-0.18433 0.767138,-0.383569 -0.197054,0.01273 0.18433,-0.36866 0.04345,-0.04345 0.140883,0.04345 0.18433,0 0.04345,-0.04345 -0.04345,-0.140882 0,-0.18433 0.04345,-0.04345 0.140883,0.04345 0.18433,0 0.04345,-0.04345 0,-0.122885 0,-0.184329 0,-0.06144 0.04345,-0.140883 0,-0.18433 -0.04345,-0.04345 -0.18433,-0.06144 -0.18433,0 0,0.06144 0.122886,0 0.18433,0 0.122886,0 0.252079,0.03886 0.36866,0 0.81289,-0.270963 0.194572,-0.02048 0.36866,-0.36866 0.03886,-0.07772 0.14547,-0.106609 0.184329,-0.18433 0.02748,-0.05496 -0.02748,-0.129373 0,-0.18433 0.03813,-0.07627 0.474859,-0.500901 0.55299,-0.552987 0.276911,-0.184608 0.953156,-0.431676 1.105977,-0.73732 0.02748,-0.05496 -0.02748,-0.129373 0,-0.18433 0.07772,-0.15544 0.290941,-0.213219 0.36866,-0.36866 0.02748,-0.05496 0,-0.122885 0,-0.184329 0.06144,-0.06144 0.14547,-0.106609 0.18433,-0.18433 0.05496,-0.109914 -0.05496,-0.258747 0,-0.36866 0.01765,-0.03529 0.702035,-0.719677 0.737319,-0.73732 0.05496,-0.02748 0.140883,0.04345 0.18433,0 0.04345,-0.04345 -0.04345,-0.140883 0,-0.18433 0.04345,-0.04345 0.140883,0.04345 0.18433,0 0.04345,-0.04345 -0.04345,-0.140882 0,-0.18433 0.04345,-0.04345 0.140883,0.04345 0.18433,0 0.381387,-0.381383 -0.582805,0.0149 0.18433,-0.368659 0.05496,-0.02748 0.140883,0.04345 0.18433,0 0.04345,-0.04345 -0.02748,-0.129374 0,-0.18433 0.07772,-0.15544 0.290939,-0.213218 0.36866,-0.36866 0.02748,-0.05495 -0.02748,-0.129374 0,-0.184327 0.110598,-0.221197 0.442391,-0.331796 0.55299,-0.55299 0.05496,-0.109913 -0.08689,-0.281766 0,-0.36866 0.08689,-0.08689 0.281765,0.08689 0.368659,0 0.04345,-0.04345 -0.04345,-0.140883 0,-0.18433 0.04345,-0.04345 0.122886,0 0.18433,0 0.36866,0 0.737317,0 1.105977,0 0.06144,0 0.122889,0 0.18433,0 0.06144,0 0.140883,0.04345 0.18433,0 0.04345,-0.04345 -0.04345,-0.140883 0,-0.18433 0.08689,-0.08689 0.258747,0.05496 0.36866,0 0.07772,-0.03886 0.106611,-0.14547 0.18433,-0.18433 0.05496,-0.02748 0.129373,0.02748 0.18433,0 0.07772,-0.03886 0.106611,-0.14547 0.18433,-0.18433 0.05496,-0.02748 0.129373,0.02748 0.18433,0 0.07772,-0.03886 0.122885,-0.122885 0.184329,-0.18433 0.06144,-0.06144 0.145471,-0.106608 0.18433,-0.18433 0.02748,-0.05496 -0.02748,-0.129373 0,-0.184329 0.03886,-0.07772 0.145471,-0.106609 0.18433,-0.18433 0.02748,-0.05496 -0.02748,-0.129374 0,-0.18433 0.03886,-0.07772 0.145471,-0.106609 0.18433,-0.18433 0.02748,-0.05496 -0.04345,-0.140883 0,-0.18433 0.04345,-0.04345 0.140883,0.04345 0.18433,0 0.08689,-0.08689 -0.08689,-0.281765 0,-0.36866 0.04345,-0.04345 0.129373,0.02748 0.18433,0 0.282316,-0.141158 0.144148,-0.328478 0.36866,-0.55299 0.04345,-0.04344 0.140883,0.04345 0.18433,0 0.04345,-0.04344 -0.04345,-0.140882 0,-0.18433 0.04345,-0.04344 0.140882,0.04345 0.18433,0 0.04345,-0.04344 -0.04345,-0.140882 0,-0.18433 0.04345,-0.04344 0.129373,0.02748 0.18433,0 0.07772,-0.03886 0.106608,-0.145467 0.184329,-0.184327 0.05496,-0.02748 0.140883,0.04345 0.18433,0 0.04345,-0.04345 -0.04345,-0.140885 0,-0.18433 0.04345,-0.04345 0.129371,0.02748 0.184328,0 0.09845,-0.04922 0.455948,-0.455948 0.552989,-0.552989 0.06144,-0.06144 0.122889,-0.122889 0.18433,-0.18433 0.06144,-0.06144 0.145471,-0.106612 0.18433,-0.18433 0.02748,-0.05496 -0.04345,-0.140883 0,-0.18433 0.04345,-0.04345 0.140883,0.04345 0.18433,0 0.04345,-0.04345 -0.04345,-0.140883 0,-0.18433 0.04345,-0.04345 0.140883,0.04345 0.18433,0 0.04345,-0.04345 -0.04345,-0.140883 0,-0.18433 0.04345,-0.04345 0.129373,0.02748 0.18433,0 0.15544,-0.07772 0.21322,-0.290938 0.36866,-0.36866 0.109913,-0.05496 0.281765,0.0869 0.36866,0 0.04345,-0.04345 -0.04345,-0.140883 0,-0.18433 0.04345,-0.04345 0.129373,0.02748 0.18433,0 0.221194,-0.110598 0.331792,-0.442391 0.552989,-0.552989 0.05496,-0.02748 0.122886,0 0.18433,0 0.122886,0 0.252079,0.03886 0.36866,0 0.08243,-0.02748 0.106609,-0.145471 0.18433,-0.18433 0.05496,-0.02748 0.129373,0.02748 0.18433,0 0.15544,-0.07772 0.213217,-0.290939 0.36866,-0.36866 0.05495,-0.02748 0.140882,0.04345 0.184327,0 0.04345,-0.04345 -0.04345,-0.140883 0,-0.18433 0.04345,-0.04345 0.129373,0.02748 0.18433,0 0.767137,-0.383567 -0.197054,0.01273 0.18433,-0.36866 0.04345,-0.04345 0.140882,0.04345 0.18433,0 0.04345,-0.04345 -0.04345,-0.140883 0,-0.18433 0.04345,-0.04344 0.140887,0.04345 0.184327,0 0.0869,-0.08689 -0.0869,-0.281765 0,-0.368657 0.0434,-0.04345 0.14089,0.04344 0.18433,0 0.0377,-0.03769 -0.0365,-0.479907 0,-0.55299 0.61135,-0.611346 -0.0869,0.173786 0.18433,-0.36866 0.0777,-0.15544 0.29094,-0.213219 0.36866,-0.368659 0.0275,-0.05496 -0.0275,-0.129374 0,-0.18433 0.0389,-0.07772 0.14547,-0.106612 0.18433,-0.18433 0.0275,-0.05496 -0.0275,-0.129374 0,-0.18433 0.0389,-0.07772 0.14547,-0.106609 0.18433,-0.18433 0.055,-0.109913 -0.0869,-0.281766 0,-0.36866 0.0435,-0.04345 0.14088,0.04345 0.18433,0 0.0435,-0.04345 -0.0275,-0.129373 0,-0.18433 0.0389,-0.07772 0.14547,-0.106608 0.18433,-0.18433 0.0275,-0.05496 -0.0275,-0.129373 0,-0.18433 0.0389,-0.07772 0.14547,-0.106608 0.18433,-0.18433 0.0275,-0.05496 -0.0435,-0.140882 0,-0.18433 0.0869,-0.08689 0.25875,0.05496 0.36866,0 0.0777,-0.03886 0.10661,-0.145467 0.18433,-0.184329 0.1,-0.05 0.68688,0.05044 0.73732,0 0.0434,-0.04345 -0.0435,-0.140883 0,-0.18433 0.0922,-0.09216 0.46083,0.09216 0.55299,0 0.0434,-0.04345 -0.0435,-0.140883 0,-0.18433 0.0434,-0.04344 0.12937,0.02748 0.18433,0 0.0777,-0.03886 0.10661,-0.145468 0.18433,-0.18433 0.0549,-0.02748 0.14088,0.04345 0.18433,0 0.0435,-0.04344 -0.0434,-0.140883 0,-0.18433 0.0435,-0.04345 0.12937,0.02748 0.18433,0 0.15544,-0.07772 0.21322,-0.290939 0.36866,-0.368657 0.0549,-0.02748 0.12937,0.02748 0.18433,0 0.15544,-0.07772 0.21322,-0.290941 0.36866,-0.36866 0.055,-0.02748 0.14088,0.04345 0.18433,0 0.0434,-0.04345 -0.0435,-0.140883 0,-0.18433 0.0869,-0.08689 0.25874,0.05496 0.36866,0 0.0777,-0.03886 0.10661,-0.145471 0.18433,-0.18433 0.055,-0.02748 0.14088,0.04345 0.18433,0 0.0434,-0.04345 -0.0434,-0.140883 0,-0.18433 0.0869,-0.08689 0.28176,0.0869 0.36866,0 0.0434,-0.04345 -0.0435,-0.140883 0,-0.18433 0.007,-0.0074 0.66962,0 0.73732,0 0.61443,0 1.22886,0 1.84329,0 0.15091,0 0.80222,0.03981 0.92165,0 0.13034,-0.04345 0.23537,-0.151008 0.36866,-0.18433 0.14018,-0.03504 0.7673,0 0.92165,0 0.73732,0 1.47464,0 2.21196,0 0.30523,0 1.04062,0.04161 1.29031,0 0.19165,-0.03194 0.36064,-0.156853 0.55299,-0.18433 0.2433,-0.03476 0.49154,0 0.73732,0 0.49154,0 0.98309,0 1.47463,0 1.10598,0 2.21196,0 3.31794,0 0.30722,0 0.61443,0 0.92165,0 0.24577,0 0.49402,0.03476 0.73732,0 0.19235,-0.02748 0.36064,-0.156853 0.55299,-0.18433 1.59456,0 -0.02,0.07772 1.29031,-0.184329 0.1205,-0.0241 0.24577,0 0.36866,0 0.24577,0 0.49154,0 0.73732,0 0.24577,0 0.49154,0 0.73731,0 0.12289,0 0.24745,-0.02022 0.36866,0 0.2499,0.04165 0.48594,0.152908 0.73732,0.184329 0.24388,0.03049 0.49305,-0.02714 0.73732,0 0.31139,0.0346 0.61027,0.149731 0.92165,0.18433 0.42747,0.0475 0.86453,-0.06082 1.29031,0 0.25079,0.03583 0.48594,0.152908 0.73732,0.18433 0.24388,0.03049 0.49155,0 0.73732,0 0.24577,0.06144 0.48653,0.148503 0.73732,0.18433 0.18248,0.02606 0.36866,0 0.55299,0 0.36866,0 0.73732,0 1.10598,0 0.0438,0 0.696,-0.02066 0.73732,0 0.0777,0.03886 0.10189,0.156851 0.18433,0.18433 0.50347,0.167823 0.24788,-0.03178 0.55298,-0.18433 0.0667,-0.03333 0.79345,0 0.92165,0 0.67588,0 1.35176,0 2.02763,0 0.18433,0 0.36866,0 0.55299,0 0.0614,0 0.14088,-0.04345 0.18433,0 0.0435,0.04345 -0.0435,0.140883 0,0.18433 0.0435,0.04345 0.14088,-0.04345 0.18433,0 0.0435,0.04345 -0.0434,0.140883 0,0.18433 0.0435,0.04345 0.14088,-0.04345 0.18433,0 0.0435,0.04345 -0.0275,0.129373 0,0.18433 0.0389,0.07772 0.14547,0.106609 0.18433,0.18433 0.0365,0.07308 -0.0377,0.515305 0,0.55299 0.0435,0.04344 0.14088,-0.04345 0.18433,0 0.0869,0.08689 -0.055,0.258746 0,0.368657 0.38357,0.767138 -0.0127,-0.197054 0.36866,0.18433 0.0435,0.04345 -0.0275,0.129373 0,0.18433 0.0389,0.07772 0.12289,0.122888 0.18433,0.18433 0.0614,0.06144 0.10661,0.14547 0.18433,0.184329 0.055,0.02748 0.12937,-0.02748 0.18433,0 0.0777,0.03886 0.10661,0.145471 0.18433,0.18433 0.10991,0.05496 0.25875,-0.05496 0.36866,0 0.0777,0.03886 0.10661,0.145471 0.18433,0.18433 0.10991,0.05496 0.25875,-0.05496 0.36866,0 0.0777,0.03886 0.10661,0.145471 0.18433,0.18433 0.055,0.02748 0.12937,-0.02748 0.18433,0 0.0777,0.03886 0.10661,0.145471 0.18433,0.18433 0.055,0.02748 0.14088,-0.04345 0.18433,0 0.0434,0.04345 -0.0435,0.140883 0,0.18433 0.0434,0.04345 0.12937,-0.02748 0.18433,0 0.0777,0.03886 0.10661,0.145471 0.18433,0.18433 0.055,0.02748 0.14088,-0.04345 0.18433,0 0.0434,0.04345 -0.0435,0.140883 0,0.18433 0.0434,0.04345 0.12288,0 0.18433,0 0,0.06144 -0.0434,0.140883 0,0.18433 0.0434,0.04345 0.14088,-0.04345 0.18433,0 0.0434,0.04345 -0.0435,0.140882 0,0.18433 0.0434,0.04345 0.14088,-0.04345 0.18433,0 0.0434,0.04345 -0.0435,0.140882 0,0.18433 0.0434,0.04345 0.14088,-0.04345 0.18433,0 0.0434,0.04345 -0.0434,0.140882 0,0.18433 0.38138,0.381383 -0.0149,-0.582809 0.36866,0.184329 0.0275,0.05496 -0.0434,0.140883 0,0.18433 0.0434,0.04345 0.12937,-0.02748 0.18433,0 0.0777,0.03886 0.10661,0.145468 0.18433,0.18433 0.0549,0.02748 0.12937,-0.02748 0.18433,0 0.0777,0.03886 0.1066,0.145468 0.18433,0.18433 0.0549,0.02748 0.14088,-0.04345 0.18433,0 0.0434,0.04345 -0.0434,0.140883 0,0.18433 0.0434,0.04345 0.14088,-0.04345 0.18433,0 0.38138,0.381384 -0.58281,-0.01492 0.18432,0.36866 0.055,0.02748 0.12938,-0.02748 0.18433,0 0.0777,0.03886 0.10661,0.145468 0.18433,0.184327 0.055,0.02748 0.14089,-0.04344 0.18433,0 0.0435,0.04345 -0.0434,0.140886 0,0.18433 0.0435,0.04345 0.12938,-0.02748 0.18433,0 0.0777,0.03886 0.11203,0.136131 0.18433,0.18433 0.11432,0.07621 0.25435,0.108119 0.36866,0.18433 0.0723,0.0482 0.10661,0.14547 0.18433,0.18433 0.14747,0.07373 0.40553,-0.07373 0.55299,0 0.0777,0.03886 0.10661,0.14547 0.18433,0.18433 0.10991,0.05496 0.28177,-0.08689 0.36866,0 0.0435,0.04345 -0.0435,0.140882 0,0.18433 0.0869,0.08689 0.28177,-0.08689 0.36866,0 0.0434,0.04345 -0.0435,0.140882 0,0.18433 0.0434,0.04345 0.14088,-0.04345 0.18433,0 0.0435,0.04345 -0.0435,0.140882 0,0.18433 0.0435,0.04345 0.12937,-0.02748 0.18433,0 0.0777,0.03886 0.10661,0.14547 0.18433,0.184329 0.055,0.02748 0.14088,-0.04345 0.18433,0 0.0435,0.04345 0,0.122886 0,0.18433 0,0.06144 0,0.122886 0,0.18433 0,0.06144 -0.0275,0.129374 0,0.18433 0.0389,0.07772 0.18433,0.09744 0.18433,0.18433 0,0.06144 -0.14088,-0.04345 -0.18433,0 -0.007,0.0074 0,0.669626 0,0.73732 0,0.06144 0,0.122885 0,0.18433 0,0.06144 -0.0434,0.140882 0,0.18433 0.0435,0.04345 0.12937,-0.02748 0.18433,0 0.0777,0.03886 0.10661,0.145467 0.18433,0.184329 0.055,0.02748 0.14088,-0.04345 0.18433,0 0.0435,0.04345 -0.0434,0.140883 0,0.18433 0.0869,0.08689 0.28177,-0.08689 0.36866,0 0.0435,0.04345 -0.0434,0.140883 0,0.18433 0.0435,0.04345 0.12937,-0.02748 0.18433,0 0.0777,0.03886 0.10661,0.145468 0.18433,0.18433 0.10991,0.05495 0.28177,-0.08689 0.36866,0 0.0435,0.04345 -0.0435,0.140883 0,0.184327 0.0435,0.04345 0.14088,-0.04344 0.18433,0 0.0435,0.04345 -0.0434,0.140886 0,0.18433 0.0435,0.04345 0.12937,-0.02748 0.18433,0 0.15544,0.07772 0.21322,0.290942 0.36866,0.36866 0.055,0.02748 0.14088,-0.04345 0.18433,0 0.0434,0.04345 -0.0275,0.129374 0,0.18433 0.0389,0.07772 0.14547,0.106611 0.18433,0.18433 0.0275,0.05496 -0.0434,0.140883 0,0.18433 0.0434,0.04345 0.14088,-0.04345 0.18433,0 0.0434,0.04345 -0.0435,0.140883 0,0.18433 0.0434,0.04345 0.14088,-0.04345 0.18433,0 0.0434,0.04345 -0.0275,0.129373 0,0.18433 0.0777,0.15544 0.29094,0.21322 0.36866,0.36866 0.0275,0.05496 -0.0275,0.129373 0,0.18433 0.0389,0.07772 0.12288,0.122885 0.18433,0.184329 0.0614,0.06144 0.10661,0.145471 0.18433,0.18433 0.0549,0.02748 0.14088,-0.04345 0.18433,0 0.0434,0.04345 -0.0435,0.140883 0,0.18433 0.0869,0.08689 0.28176,-0.08689 0.36866,0 0.0434,0.04345 -0.0435,0.140883 0,0.18433 0.0444,0.04436 0.69296,-0.04435 0.73732,0 0.0434,0.04345 -0.0435,0.140883 0,0.18433 0.0377,0.03768 0.4799,-0.03654 0.55299,0 0.0777,0.03886 0.1066,0.145468 0.18433,0.18433 0.0549,0.02748 0.14088,-0.04345 0.18433,0 0.0434,0.04345 0,0.122886 0,0.18433 0,0.06144 0,0.122886 0,0.18433 0,0.06769 -0.007,0.729901 0,0.73732 0.0434,0.04344 0.14088,-0.04345 0.18433,0 0.0434,0.04344 -0.0435,0.140882 0,0.184327 0.0434,0.04345 0.12937,-0.02748 0.18432,0 0.0777,0.03886 0.11203,0.136131 0.18433,0.18433 0.11432,0.07621 0.24578,0.122888 0.36866,0.18433 0.12289,0.06144 0.23537,0.151008 0.36866,0.18433 0.11922,0.02981 0.24578,0 0.36866,0 0.0615,0 0.12937,-0.02748 0.18433,0 0.0777,0.03886 0.10661,0.14547 0.18433,0.184329 0.10991,0.05496 0.28177,-0.08689 0.36866,0 0.0435,0.04345 -0.0435,0.140883 0,0.18433 0.0435,0.04345 0.12937,-0.02748 0.18433,0 0.15544,0.07772 0.21322,0.290941 0.36866,0.36866 0.055,0.02748 0.12937,-0.02748 0.18433,0 0.0777,0.03886 0.10661,0.145471 0.18433,0.18433 0.055,0.02748 0.14088,-0.04345 0.18433,0 0.0435,0.04345 -0.0434,0.140883 0,0.18433 0.0435,0.04345 0.12289,0 0.18433,0 0,0.06144 -0.0435,0.140883 0,0.18433 0.0434,0.04345 0.14088,-0.04345 0.18433,0 0.0435,0.04345 -0.0435,0.140883 0,0.18433 0.0435,0.04345 0.14088,-0.04345 0.18433,0 0.0434,0.04345 -0.0275,0.129373 0,0.18433 0.0389,0.07772 0.14547,0.106608 0.18433,0.18433 0.0242,0.04847 0,0.640929 0,0.737319 0,0.614432 0,1.228866 0,1.843297 0,0.08302 -0.0281,0.496893 0,0.55299 0.0389,0.07772 0.14547,0.106611 0.18433,0.184329 0.12713,0.254257 -0.22323,0.164878 0.18433,0.36866 0.055,0.02748 0.14088,-0.04345 0.18433,0 0.0435,0.04345 -0.0435,0.140883 0,0.18433 0.0869,0.08689 0.25875,-0.05496 0.36866,0 0.0777,0.03886 0.10661,0.145471 0.18433,0.18433 0.0731,0.03654 0.51531,-0.03768 0.55299,0 0.0434,0.04345 -0.0435,0.140883 0,0.18433 0.0443,0.04435 0.69296,-0.04435 0.73732,0 0.0434,0.04345 -0.0435,0.140883 0,0.18433 0.0869,0.08689 0.28176,-0.08689 0.36866,0 0.0434,0.04345 -0.0435,0.140883 0,0.18433 0.0434,0.04345 0.14088,-0.04345 0.18433,0 0.0434,0.04345 -0.0434,0.140883 0,0.18433 0.0434,0.04345 0.14088,-0.04345 0.18433,0 0.0869,0.08689 -0.0869,0.281765 0,0.36866 0.0434,0.04345 0.14088,-0.04345 0.18433,0 0.0922,0.09216 -0.0922,0.460824 0,0.552989 0.0434,0.04345 0.14088,-0.04345 0.18433,0 0.0647,0.0647 -0.0637,0.794325 0,0.921647 0.027,0.05397 0.69621,0.72362 0.73732,0.73732 0.11658,0.03886 0.25874,-0.05496 0.36866,0 0.0549,0.02748 -0.0435,0.140883 0,0.18433 0.49154,0 -0.0615,-0.06144 0.18433,0.18433 0.0434,0.04345 0.14088,-0.04345 0.18433,0 0.0434,0.04345 0,0.122886 0,0.18433 0,0.430104 0,0.860205 0,1.290309 0,0.06144 0,0.122886 0,0.18433 0,0.06144 0.0434,0.140883 0,0.18433 -0.0435,0.04345 -0.14089,-0.04345 -0.18433,0 -0.0434,0.04345 0,0.122886 0,0.18433 0,0.08301 -0.028,0.49689 0,0.55299 0.0389,0.07772 0.12288,0.122885 0.18433,0.184329 0.0614,0.06144 0.1066,0.145468 0.18433,0.18433 0.055,0.02748 0.14088,-0.04345 0.18433,0 0.0869,0.08689 -0.0869,0.281766 0,0.368658 0.0434,0.04345 0.14088,-0.04344 0.18432,0 0.0869,0.08689 -0.0869,0.281768 0,0.368659 0.0435,0.04345 0.14089,-0.04345 0.18433,0 0.0444,0.04436 -0.0444,0.692965 0,0.73732 0.0434,0.04345 0.14089,-0.04345 0.18433,0 0.0435,0.04345 0,0.122886 0,0.18433 0,0.06769 0.007,0.729901 0,0.73732 -0.0434,0.04345 -0.14088,-0.04345 -0.18433,0 -0.006,0.0059 0,0.508283 0,0.552989 0,0.06144 0,0.122886 0,0.18433 0,0.06144 0.0275,0.129374 0,0.18433 -0.024,0.04799 -0.32842,0.224563 -0.18433,0.36866 0.0435,0.04345 0.14089,-0.04345 0.18433,0 0.0869,0.08689 -0.055,0.258747 0,0.36866 0.0389,0.07772 0.14547,0.106608 0.18433,0.18433 0.0275,0.05496 -0.0275,0.129373 0,0.18433 0.0389,0.07772 0.14547,0.106608 0.18433,0.184327 0.0275,0.05496 -0.0275,0.129373 0,0.18433 0.0389,0.07772 0.14547,0.106611 0.18433,0.18433 0.0275,0.05496 -0.0434,0.140882 0,0.18433 0.0434,0.04345 0.14088,-0.04345 0.18433,0 0.0435,0.04345 -0.0435,0.140887 0,0.184327 0.0435,0.0434 0.14088,-0.0434 0.18433,0 0.0434,0.0434 -0.0435,0.14089 0,0.18433 0.0434,0.0435 0.14088,-0.0434 0.18433,0 0.0435,0.0435 -0.0275,0.12938 0,0.18433 0.0389,0.0777 0.14547,0.10661 0.18433,0.18433 0.0275,0.055 -0.0434,0.14089 0,0.18433 0.0435,0.0434 0.14088,-0.0434 0.18433,0 0.0869,0.0869 -0.055,0.25875 0,0.36866 0.0389,0.0777 0.14547,0.10661 0.18433,0.18433 0.055,0.10992 -0.0549,0.25875 0,0.36866 0.0389,0.0777 0.14547,0.10661 0.18433,0.18433 0.0333,0.0667 0,0.79344 0,0.92165 0,0.0614 0.0434,0.14088 0,0.18433 -0.0435,0.0434 -0.14088,-0.0435 -0.18433,0 -0.0869,0.0869 0.0869,0.28177 0,0.36866 -0.0435,0.0435 -0.14088,-0.0434 -0.18433,0 0,0.49155 0.0614,-0.0614 -0.18433,0.18433 -0.0434,0.0434 0.0435,0.14088 0,0.18433 -0.0434,0.0434 -0.14088,-0.0435 -0.18433,0 -0.0869,0.0869 0.0869,0.28177 0,0.36866 -0.0435,0.0435 -0.14088,-0.0434 -0.18433,0 -0.0869,0.0869 0.0869,0.28177 0,0.36866 -0.0435,0.0434 -0.14088,-0.0435 -0.18433,0 -0.0435,0.0434 0.0275,0.12937 0,0.18433 -0.0389,0.0777 -0.14547,0.10661 -0.18433,0.18433 -0.055,0.10991 0.0869,0.28176 0,0.36866 -0.0434,0.0434 -0.14088,-0.0434 -0.18433,0 -0.0377,0.0377 0.0366,0.4799 0,0.55299 -0.0389,0.0777 -0.14547,0.10661 -0.18433,0.18433 -0.0549,0.10991 0.055,0.25874 0,0.36866 -0.0389,0.0777 -0.14547,0.10661 -0.18433,0.18433 -0.0275,0.0549 0.0434,0.14088 0,0.18433 -0.0614,0.0614 -0.30723,-0.0614 -0.36865,0 -0.0435,0.0434 0.0434,0.14088 0,0.18433 -0.0869,0.0869 -0.25875,-0.055 -0.36866,0 -0.0777,0.0389 -0.10662,0.14546 -0.18433,0.18433 -0.10992,0.055 -0.28177,-0.0869 -0.36866,0 -0.0435,0.0434 0.0434,0.14088 0,0.18433 -0.0435,0.0434 -0.14089,-0.0434 -0.18433,0 -0.0869,0.0869 0.0869,0.28176 0,0.36866 -0.0435,0.0434 -0.14089,-0.0435 -0.18433,0 -0.0444,0.0443 0.0443,0.69296 0,0.73731 -0.0435,0.0435 -0.14089,-0.0434 -0.18433,0 -0.0869,0.0869 0.0869,0.28177 0,0.36866 -0.0434,0.0434 -0.14089,-0.0434 -0.18433,0 -0.0435,0.0434 0,0.12289 0,0.18433 0,0.30722 0,0.61444 0,0.92165 0,0.0964 0.0242,0.68885 0,0.73732 -0.0389,0.0777 -0.14547,0.10661 -0.18433,0.18433 -0.055,0.10992 0.0869,0.28177 0,0.36866 -0.0435,0.0435 -0.14089,-0.0434 -0.18433,0 -0.0869,0.0869 0.0869,0.28177 0,0.36866 -0.0435,0.0434 -0.14089,-0.0435 -0.18433,0 -0.0869,0.0869 0.0549,0.25875 0,0.36866 -0.0389,0.0777 -0.14547,0.10661 -0.18433,0.18433 -0.0275,0.055 0.0275,0.12938 0,0.18433 -0.0389,0.0777 -0.14547,0.10661 -0.18433,0.18433 -0.0275,0.055 0.0434,0.14088 0,0.18433 -0.0435,0.0434 -0.14089,-0.0435 -0.18433,0 -0.0435,0.0434 0.0434,0.14088 0,0.18433 -0.0435,0.0435 -0.14089,-0.0434 -0.18433,0 -0.0869,0.0869 0.0869,0.28177 0,0.36866 -0.0435,0.0435 -0.14089,-0.0434 -0.18433,0 -0.0869,0.0869 0.0869,0.28176 0,0.36866 -0.0435,0.0434 -0.14089,-0.0435 -0.18433,0 -0.0869,0.0869 0.0869,0.28176 0,0.36866 -0.0434,0.0435 -0.14089,-0.0434 -0.18433,0 -0.0869,0.0869 0.0869,0.28176 0,0.36866 -0.0435,0.0434 -0.14089,-0.0435 -0.18433,0 -0.38139,0.38138 0.58281,-0.0149 -0.18433,0.36866 -0.0561,0.0281 -0.46998,0 -0.55299,0 -0.36866,0 -0.73732,0 -1.10598,0 -0.0614,0 -0.12289,0 -0.18433,0 -0.0614,0 -0.14088,-0.0434 -0.18433,0 -0.0435,0.0435 0.0434,0.14088 0,0.18433 -0.0869,0.0869 -0.28176,-0.0869 -0.36866,0 -0.0435,0.0435 0.0435,0.14088 0,0.18433 -0.0435,0.0434 -0.14088,-0.0434 -0.18433,0 -0.0435,0.0434 0.0275,0.12937 0,0.18433 -0.0389,0.0777 -0.14547,0.10661 -0.18433,0.18433 -0.0275,0.0549 0.0435,0.14088 0,0.18433 -0.0435,0.0434 -0.14088,-0.0434 -0.18433,0 -0.0435,0.0434 0.0275,0.12937 0,0.18433 -0.0389,0.0777 -0.14547,0.10661 -0.18433,0.18433 -0.0275,0.055 0.0435,0.14088 0,0.18433 -0.0434,0.0434 -0.14088,-0.0435 -0.18433,0 -0.0435,0.0434 0.0275,0.12937 0,0.18433 -0.0777,0.15544 -0.29094,0.21321 -0.36866,0.36866 -0.0275,0.055 0.0275,0.12937 0,0.18432 -0.0777,0.15545 -0.29094,0.21322 -0.36866,0.36866 -0.0275,0.055 0.0435,0.14089 0,0.18433 -0.0434,0.0434 -0.12937,-0.0275 -0.18433,0 -0.76713,0.38357 0.19706,-0.0127 -0.18433,0.36866 -0.0434,0.0435 -0.14088,-0.0434 -0.18433,0 -0.0434,0.0435 0.0435,0.14089 0,0.18433 -0.0434,0.0435 -0.12288,0 -0.18433,0 0,0.0615 0.0434,0.14089 0,0.18433 -0.0434,0.0434 -0.14088,-0.0434 -0.18433,0 -0.0434,0.0434 0.0435,0.14089 0,0.18433 -0.0434,0.0434 -0.14088,-0.0434 -0.18433,0 -0.0434,0.0434 0.0275,0.12938 0,0.18433 -0.0389,0.0777 -0.14547,0.10661 -0.18433,0.18433 -0.0275,0.055 0.0275,0.12938 0,0.18433 -0.0389,0.0777 -0.14547,0.10661 -0.18432,0.18433 -0.0275,0.055 0.0434,0.14089 0,0.18433 -0.0435,0.0434 -0.14089,-0.0434 -0.18433,0 -0.0435,0.0434 0.0434,0.14089 0,0.18433 -0.0435,0.0434 -0.14089,-0.0434 -0.18433,0 -0.0435,0.0434 0.0434,0.14089 0,0.18433 -0.0869,0.0869 -0.25875,-0.0549 -0.36866,0 -0.0777,0.0389 -0.10662,0.14547 -0.18433,0.18433 -0.055,0.0275 -0.12938,-0.0275 -0.18433,0 -0.45556,0.22778 0.0636,0.18433 -0.36866,0.18433 -0.0615,0 -0.14089,-0.0434 -0.18433,0 -0.0434,0.0435 -0.0614,0.18433 0,0.18433 0.0614,0 0.0434,-0.14088 0,-0.18433 -0.0434,-0.0434 -0.14089,-0.0434 -0.18433,0 -0.0435,0.0435 0.0434,0.14089 0,0.18433 -0.12286,0.12286 -0.24581,-0.12285 -0.36866,0 -0.0435,0.0434 0.0434,0.14089 0,0.18433 -0.0869,0.0869 -0.28177,-0.0869 -0.36866,0 -0.0434,0.0434 0.0434,0.14089 0,0.18433 -0.0869,0.0869 -0.28177,-0.0869 -0.36866,0 -0.0435,0.0435 0.0434,0.14089 0,0.18433 -0.0435,0.0435 -0.12938,-0.0275 -0.18433,0 -0.2212,0.1106 -0.3318,0.44239 -0.55299,0.55299 -0.055,0.0275 -0.14089,-0.0435 -0.18433,0 -0.0434,0.0434 0.0434,0.14088 0,0.18433 -0.0434,0.0435 -0.14089,-0.0434 -0.18433,0 -0.0435,0.0435 0.0275,0.12937 0,0.18433 -0.61135,0.61135 0.0869,-0.17379 -0.18433,0.36866 -0.0777,0.15544 -0.29094,0.21322 -0.36866,0.36866 -0.0275,0.055 0.0435,0.14088 0,0.18433 -0.0435,0.0435 -0.14088,-0.0434 -0.18433,0 0,0.49154 0.0614,-0.0614 -0.18433,0.18433 -0.0435,0.0435 0.0435,0.14088 0,0.18433 -0.38139,0.38139 0.0149,-0.58281 -0.36866,0.18433 -0.0275,0.055 0.0435,0.14088 0,0.18433 -0.38139,0.38138 0.0149,-0.58281 -0.36866,0.18433 -0.055,0.10991 0.055,0.25875 0,0.36866 -0.0777,0.15544 -0.29094,0.21322 -0.36866,0.36866 -0.0275,0.0549 0.0275,0.12937 0,0.18433 -0.0389,0.0777 -0.14547,0.10661 -0.18433,0.18433 -0.0238,0.0477 0,0.97532 0,1.10597 0,0.12821 -0.0333,0.855 0,0.92165 0.0389,0.0777 0.14547,0.10662 0.18433,0.18433 0.055,0.10992 -0.0869,0.28177 0,0.36866 0.0869,0.0869 0.28177,-0.0869 0.36866,0 0.0435,0.0434 -0.0434,0.14089 0,0.18433 0.0444,0.0444 0.69297,-0.0443 0.73732,0 0.0435,0.0435 0,0.12289 0,0.18433 0,0.12821 0.0333,0.85499 0,0.92165 -0.0389,0.0777 -0.14547,0.10661 -0.18433,0.18433 -0.0275,0.055 0.0434,0.14089 0,0.18433 -0.0435,0.0435 -0.14088,-0.0434 -0.18433,0 -0.0504,0.0504 0.05,0.63733 0,0.73732 -0.0389,0.0777 -0.14547,0.10661 -0.18433,0.18433 -0.0737,0.14747 0.0737,0.40553 0,0.55299 -0.0389,0.0777 -0.14547,0.10661 -0.18433,0.18433 -0.0365,0.0731 0.0377,0.51531 0,0.55299 -0.24577,0.24577 -0.18433,-0.30722 -0.18433,0.18433 0,0.0614 0.0435,0.14088 0,0.18433 -0.0435,0.0434 -0.14088,-0.0435 -0.18433,0 -0.0435,0.0434 0,0.12289 0,0.18433 0,0.0614 -0.0435,0.14088 0,0.18433 0.0444,0.0444 0.69297,-0.0444 0.73732,0 0.0435,0.0435 -0.0434,0.14088 0,0.18433 0.0435,0.0435 0.14088,-0.0435 0.18433,0 0.0434,0.0435 0,0.12289 0,0.18433 0,0.0614 0,0.12288 0,0.18433 0,0.0677 0.007,0.7299 0,0.73732 -0.0435,0.0435 -0.14088,-0.0435 -0.18433,0 -0.0434,0.0435 0.0435,0.14088 0,0.18433 -0.0434,0.0434 -0.14088,-0.0435 -0.18433,0 -0.0435,0.0434 0.0435,0.14088 0,0.18433 -0.0435,0.0435 -0.14088,-0.0435 -0.18433,0 -0.0434,0.0435 0.0275,0.12937 0,0.18433 -0.0389,0.0777 -0.14547,0.10661 -0.18433,0.18433 -0.0275,0.055 0,0.12288 0,0.18433 -0.0614,0.0614 -0.14547,0.10661 -0.18433,0.18433 -0.0275,0.0549 0,0.12288 0,0.18433 0,0.0614 0,0.12288 0,0.18433 0,0.36866 0,0.73732 0,1.10597 0,0.0615 -0.0435,0.14089 0,0.18433 0.0434,0.0435 0.14088,-0.0434 0.18433,0 0.0571,0.0571 -0.0571,0.86458 0,0.92165 0.0435,0.0435 0.14088,-0.0434 0.18433,0 0.0435,0.0435 0,0.12289 0,0.18433 0,0.0869 -0.008,0.9133 0,0.92165 0.0435,0.0435 0.14088,-0.0434 0.18433,0 0.0869,0.0869 -0.0869,0.28177 0,0.36866 0.007,0.007 0.66963,0 0.73732,0 1.16742,0 2.33484,0 3.50227,0 1.41319,0 2.82639,0 4.23958,0 0.61443,0 1.22887,0 1.8433,0 0.12289,0 0.24577,0 0.36866,0 0.12289,0 0.25208,-0.0389 0.36866,0 0.0824,0.0275 0.10189,0.15685 0.18433,0.18433 0.0844,0.0281 0.81876,0 0.92165,0 0.67587,0 1.35175,0 2.02763,0 2.21195,0 4.42391,0 6.63587,0 1.10598,0 2.21196,0 3.31793,0 0.18433,0 0.36866,0 0.55299,0 0.0615,0 0.14089,0.0435 0.18433,0 0.0434,-0.0434 -0.0434,-0.14088 0,-0.18433 0.0434,-0.0434 0.12289,0 0.18433,0 0.49155,0 0.9831,0 1.47464,0 0.30722,0 0.61443,0 0.92165,0 0.0614,0 0.14088,0.0434 0.18433,0 0.0434,-0.0434 -0.0435,-0.14088 0,-0.18433 0.0377,-0.0377 0.47991,0.0366 0.55299,0 0.0777,-0.0389 0.10661,-0.14547 0.18433,-0.18433 0.14746,-0.0737 0.40553,0.0737 0.55299,0 0.15544,-0.0777 0.21322,-0.29094 0.36866,-0.36866 0.055,-0.0275 0.14088,0.0435 0.18433,0 0.0434,-0.0434 -0.0435,-0.14088 0,-0.18433 0.0434,-0.0434 0.14088,0.0434 0.18433,0 0.0869,-0.0869 -0.0869,-0.28176 0,-0.36866 0.0435,-0.0434 0.14088,0.0435 0.18433,0 0.0435,-0.0434 -0.0275,-0.12937 0,-0.18433 0.19633,-0.39265 0.17233,0.024 0.36866,-0.36866 0.0275,-0.055 -0.0275,-0.12937 0,-0.18433 0.0777,-0.15544 0.29094,-0.21322 0.36866,-0.36866 0.0275,-0.0549 -0.0275,-0.12937 0,-0.18433 0.0777,-0.15544 0.29094,-0.21321 0.36866,-0.36865 0.0275,-0.055 -0.0275,-0.12938 0,-0.18433 0.0389,-0.0777 0.14547,-0.10661 0.18433,-0.18433 0.0275,-0.055 -0.0194,-0.12604 0,-0.18433 0.0434,-0.13034 0.14088,-0.23832 0.18433,-0.36866 0.0194,-0.0583 -0.0275,-0.12938 0,-0.18433 0.0389,-0.0777 0.14547,-0.10661 0.18433,-0.18433 0.0275,-0.055 -0.0275,-0.12937 0,-0.18433 0.0389,-0.0777 0.14546,-0.10661 0.18433,-0.18433 0.05,-0.1 -0.0504,-0.68688 0,-0.73732 0.0434,-0.0435 0.14088,0.0435 0.18433,0 0.0434,-0.0435 0,-0.12289 0,-0.18433 0,-0.0614 0,-0.12289 0,-0.18433 0,-0.30722 0,-0.61443 0,-0.92165 0,-0.0614 0,-0.12289 0,-0.18433 0,-0.0614 -0.0275,-0.12937 0,-0.18433 0.0389,-0.0777 0.18433,-0.0974 0.18433,-0.18433 0,-0.0614 -0.14089,0.0435 -0.18433,0 -0.0435,-0.0435 0,-0.12289 0,-0.18433 0,-0.4301 0,-0.86021 0,-1.29031 0,-0.0614 0.0434,-0.14088 0,-0.18433 -0.0435,-0.0434 -0.14089,0.0435 -0.18433,0 -0.0869,-0.0869 0.0869,-0.28176 0,-0.36866 -0.0434,-0.0434 -0.14089,0.0435 -0.18433,0 -0.0444,-0.0443 0.0444,-0.69296 0,-0.73732 -0.0435,-0.0434 -0.14089,0.0434 -0.18433,0 -0.0377,-0.0377 0.0365,-0.4799 0,-0.55299 -0.0389,-0.0777 -0.14547,-0.1066 -0.18433,-0.18433 -0.0275,-0.0549 0.0434,-0.14088 0,-0.18433 -0.0435,-0.0434 -0.14089,0.0435 -0.18433,0 -0.1441,-0.14409 0.16033,-0.32067 0.18433,-0.36866 0,-0.49154 -0.0614,0.0614 0.18433,-0.18433 0.0434,-0.0434 -0.0435,-0.14088 0,-0.18433 0.0434,-0.0434 0.12937,0.0275 0.18433,0 0.22777,-0.11388 0.18433,-0.17796 0.18433,-0.36866 0,-0.36866 0,-0.73731 0,-1.10597 0,-0.0615 0,-0.12289 0,-0.18433 0,-0.0615 -0.0275,-0.12938 0,-0.18433 0.0389,-0.0777 0.14546,-0.10661 0.18433,-0.18433 0.0275,-0.055 -0.0275,-0.12938 0,-0.18433 0.0389,-0.0777 0.14546,-0.10661 0.18433,-0.18433 0.0637,-0.12732 -0.0647,-0.85695 0,-0.92165 0.0434,-0.0435 0.14088,0.0434 0.18433,0 0.0922,-0.0922 -0.0922,-0.46083 0,-0.55299 0.0434,-0.0434 0.12937,0.0275 0.18433,0 0.0777,-0.0389 0.10661,-0.14547 0.18433,-0.18433 0.055,-0.0275 0.14088,0.0435 0.18432,0 0.0435,-0.0434 -0.0434,-0.14088 0,-0.18433 0.0435,-0.0435 0.12938,0.0275 0.18433,0 0.0777,-0.0389 0.10661,-0.14547 0.18433,-0.18433 0.14747,-0.0737 0.40553,0.0737 0.55299,0 0.15544,-0.0777 0.21322,-0.29094 0.36866,-0.36866 0.055,-0.0275 0.14089,0.0435 0.18433,0 0.0435,-0.0434 -0.0434,-0.14088 0,-0.18433 0.0435,-0.0434 0.12938,0.0275 0.18433,0 0.0777,-0.0389 0.12289,-0.12289 0.18433,-0.18433 0.0615,-0.0614 0.14547,-0.10661 0.18433,-0.18433 0.0275,-0.055 -0.0434,-0.14088 0,-0.18433 0.0435,-0.0434 0.14089,0.0434 0.18433,0 0.0435,-0.0434 -0.0434,-0.14088 0,-0.18433 0.0435,-0.0434 0.14089,0.0435 0.18433,0 0.0869,-0.0869 -0.0869,-0.28177 0,-0.36866 0.0435,-0.0434 0.14089,0.0435 0.18433,0 0.0922,-0.0922 -0.0922,-0.46082 0,-0.55299 0.0434,-0.0434 0.14089,0.0435 0.18433,0 0.0377,-0.0377 -0.0365,-0.4799 0,-0.55299 0.0389,-0.0777 0.14547,-0.10661 0.18433,-0.18433 0.0737,-0.14746 -0.0737,-0.40552 0,-0.55299 0.0389,-0.0777 0.14547,-0.10661 0.18433,-0.18433 0.0275,-0.055 -0.0434,-0.14088 0,-0.18433 0.0435,-0.0434 0.14089,0.0434 0.18433,0 0.0435,-0.0434 -0.0434,-0.14088 0,-0.18433 0.0435,-0.0434 0.12938,0.0275 0.18433,0 0.0777,-0.0389 0.10661,-0.14546 0.18433,-0.18433 0.055,-0.0275 0.14088,0.0435 0.18433,0 0.0435,-0.0434 -0.0434,-0.14088 0,-0.18433 0.0435,-0.0434 0.14088,0.0435 0.18433,0 0.0869,-0.0869 -0.0869,-0.28176 0,-0.36866 0.0435,-0.0434 0.14088,0.0434 0.18433,0 0.0435,-0.0434 0,-0.12288 0,-0.18433 0,-0.083 0.0281,-0.49689 0,-0.55298 -0.0389,-0.0777 -0.14547,-0.10661 -0.18433,-0.18433 -0.0281,-0.0561 0,-0.46998 0,-0.55299 0,-0.0614 -0.0435,-0.14089 0,-0.18433 0.0435,-0.0434 0.14088,0.0434 0.18433,0 0.0435,-0.0434 -0.0275,-0.12938 0,-0.18433 0.0389,-0.0777 0.14547,-0.10661 0.18433,-0.18433 0.0275,-0.055 -0.0435,-0.14089 0,-0.18433 0.0434,-0.0435 0.14088,0.0434 0.18433,0 0.0184,-0.0184 0.0184,-0.53456 0,-0.55299 -0.0435,-0.0434 -0.14088,0.0435 -0.18433,0 -0.006,-0.006 0,-0.50829 0,-0.55299 0,-0.4301 0,-0.86021 0,-1.29031 0,-0.0614 0.0434,-0.14088 0,-0.18433 -0.0435,-0.0435 -0.12289,0 -0.18433,0 0,-0.0614 0.0435,-0.14088 0,-0.18433 -0.0922,-0.0922 -0.46082,0.0922 -0.55299,0 -0.0435,-0.0435 0.0435,-0.14088 0,-0.18433 -0.0435,-0.0435 -0.14088,0.0434 -0.18433,0 -0.0435,-0.0435 -0.0435,-0.14088 0,-0.18433 0.0434,-0.0434 0.14088,0.0435 0.18433,0 0.0377,-0.0377 -0.0365,-0.4799 0,-0.55299 0.0389,-0.0777 0.14547,-0.10661 0.18433,-0.18433 0.0275,-0.055 0,-0.12289 0,-0.18433 0,-0.0614 0,-0.12289 0,-0.18433 0,-0.30721 0,-0.61443 0,-0.92165 0,-0.0614 0,-0.12288 0,-0.18433 0,-0.0614 -0.0434,-0.14088 0,-0.18433 0.0435,-0.0434 0.14088,0.0434 0.18433,0 0.006,-0.006 0,-0.50828 0,-0.55299 0,-0.0677 0.007,-0.7299 0,-0.73732 -0.0435,-0.0434 -0.14088,0.0435 -0.18433,0 -0.38138,-0.38138 0.58281,0.0149 -0.18433,-0.36865 -0.0549,-0.0275 -0.14088,0.0434 -0.18433,0 -0.0869,-0.0869 0.0869,-0.28177 0,-0.36866 -0.0435,-0.0435 -0.14088,0.0434 -0.18433,0 -0.0434,-0.0435 0,-0.12289 0,-0.18433 0,-0.083 -0.0281,-0.4969 0,-0.55299 0.0389,-0.0777 0.14547,-0.10661 0.18433,-0.18433 0.0275,-0.055 -0.0275,-0.12938 0,-0.18433 0.0389,-0.0777 0.14547,-0.10661 0.18433,-0.18433 0.0275,-0.055 -0.0435,-0.14089 0,-0.18433 0.0922,-0.0922 0.46083,0.0922 0.55299,0 0,-0.49155 -0.0614,0.0614 0.18433,-0.18433 0.026,-0.026 0.0189,-0.51518 0,-0.55299 -0.0389,-0.0777 -0.14547,-0.10661 -0.18433,-0.18433 -0.0275,-0.055 0.0435,-0.14089 0,-0.18433 -0.0435,-0.0434 -0.18433,-0.0614 -0.18433,0 0,0.0614 0.14088,0.0434 0.18433,0 0.0435,-0.0434 -0.0275,-0.12938 0,-0.18433 0.0389,-0.0777 0.14547,-0.10661 0.18433,-0.18433 0.0275,-0.055 -0.0435,-0.14088 0,-0.18433 0.0922,-0.0922 0.46082,0.0922 0.55299,0 0.0435,-0.0435 -0.0435,-0.14088 0,-0.18433 0.0435,-0.0434 0.14088,0.0435 0.18433,0 0.0435,-0.0434 0,-0.12289 0,-0.18433 0,-0.30722 0,-0.61443 0,-0.92165 0,-0.0614 -0.0435,-0.14088 0,-0.18433 0.0435,-0.0435 0.12937,0.0275 0.18433,0 0.0777,-0.0389 0.10661,-0.14547 0.18433,-0.18433 0.10991,-0.055 0.28176,0.0869 0.36866,0 0.0435,-0.0435 -0.0435,-0.14088 0,-0.18433 0.0435,-0.0435 0.12937,0.0275 0.18433,0 0.10242,-0.0512 0.30922,-0.36866 0.36866,-0.36866 0.0614,0 -0.0435,0.14088 0,0.18433 0.0435,0.0435 0.14088,0.0435 0.18433,0 0.0869,-0.0869 -0.055,-0.25875 0,-0.36866 0.0389,-0.0777 0.14547,-0.10661 0.18433,-0.18433 0.0579,-0.11585 -0.0579,-0.62146 0,-0.73732 0.0389,-0.0777 0.14547,-0.10661 0.18433,-0.18433 0.056,-0.11193 -0.056,-0.99405 0,-1.105977 0.0389,-0.07772 0.14547,-0.106609 0.18433,-0.18433 0.008,-0.01572 0.008,-0.721606 0,-0.737317 -0.0389,-0.07772 -0.14547,-0.106611 -0.18433,-0.18433 -0.0275,-0.05496 0.0435,-0.140883 0,-0.18433 -0.0434,-0.04345 -0.14088,0.04345 -0.18433,0 -0.0435,-0.04345 0.0435,-0.140883 0,-0.18433 -0.0435,-0.04345 -0.14088,0.04345 -0.18433,0 -0.0434,-0.04345 0.0435,-0.140883 0,-0.18433 -0.0434,-0.04345 -0.12938,0.02748 -0.18433,0 -0.0777,-0.03886 -0.10661,-0.14547 -0.18433,-0.18433 -0.055,-0.02748 -0.14088,0.04345 -0.18433,0 -0.0869,-0.08689 0.0869,-0.281765 0,-0.36866 -0.0434,-0.04345 -0.14088,0.04345 -0.18433,0 -0.0435,-0.04345 0,-0.122885 0,-0.18433 0,-0.08301 -0.0281,-0.496892 0,-0.552989 0.0389,-0.07772 0.14547,-0.106609 0.18433,-0.18433 0.0275,-0.05496 -0.0275,-0.129373 0,-0.18433 0.0389,-0.07772 0.14547,-0.106609 0.18433,-0.18433 0.0549,-0.109913 -0.0869,-0.281765 0,-0.36866 0.0434,-0.04345 0.14088,0.04345 0.18433,0 0.0435,-0.04345 -0.0435,-0.140883 0,-0.18433 0.0184,-0.01844 0.53455,-0.01844 0.55299,0 0.0435,0.04345 -0.0434,0.140883 0,0.18433 0.0435,0.04345 0.14088,0.04345 0.18433,0 1.7e-4,-1.74e-4 -2.7e-4,-0.552153 0,-0.55299 0.0275,-0.08243 0.14547,-0.106608 0.18433,-0.184329 0.0242,-0.04847 0,-0.64093 0,-0.737318 0,-0.128209 0.0333,-0.85499 0,-0.921649 -0.38357,-0.767138 0.0127,0.197054 -0.36866,-0.18433 -0.0434,-0.04345 0.0435,-0.140883 0,-0.18433 -0.0434,-0.04345 -0.12938,0.02748 -0.18433,0 -0.0777,-0.03886 -0.10661,-0.14547 -0.18433,-0.18433 -0.055,-0.02748 -0.12938,0.02748 -0.18433,0 -0.0777,-0.03886 -0.10661,-0.14547 -0.18433,-0.18433 -0.055,-0.02748 -0.12938,0.02748 -0.18433,0 -0.25586,-0.127928 -0.18433,-0.327983 -0.18433,-0.552989 0,-0.06145 0,-0.122886 0,-0.18433 0,-0.06144 -0.0435,-0.140883 0,-0.18433 0.0435,-0.04345 0.14088,0.04345 0.18433,0 0.0922,-0.09216 -0.0922,-0.460825 0,-0.55299 0.0435,-0.04345 0.14088,0.04345 0.18433,0 0.0434,-0.04345 -0.0435,-0.140883 0,-0.18433 0.006,-0.0059 0.50828,0 0.55299,0 0.0614,0 0.14088,-0.04345 0.18433,0 0.0435,0.04345 -0.0434,0.140883 0,0.18433 0.0435,0.04345 0.14088,-0.04345 0.18433,0 0.0434,0.04345 -0.0435,0.140883 0,0.18433 0.0434,0.04345 0.14088,0.04345 0.18433,0 0.0434,-0.04345 -0.0275,-0.129373 0,-0.18433 0.0389,-0.07772 0.14547,-0.106609 0.18433,-0.18433 0.0242,-0.04847 0,-0.640929 0,-0.73732 0,-0.08301 0.0281,-0.49689 0,-0.552987 -0.0389,-0.07772 -0.14547,-0.106611 -0.18433,-0.18433 -0.0275,-0.05496 0.0275,-0.129373 0,-0.18433 -0.0389,-0.07772 -0.14547,-0.106611 -0.18433,-0.184329 -0.0275,-0.05496 0.0434,-0.140883 0,-0.18433 -0.38139,-0.381387 0.0149,0.582805 -0.36866,-0.18433 -0.0637,-0.127323 0.0647,-0.856946 0,-0.92165 -0.0435,-0.04345 -0.14088,0.04345 -0.18433,0 -0.0869,-0.08689 0.0869,-0.281765 0,-0.36866 -0.0434,-0.04345 -0.12938,0.02748 -0.18433,0 -0.0777,-0.03886 -0.10661,-0.14547 -0.18433,-0.18433 -0.10991,-0.05496 -0.28177,0.08689 -0.36866,0 -0.24577,-0.245771 0.30721,-0.18433 -0.18433,-0.18433 -0.0614,0 -0.14088,0.04345 -0.18433,0 -0.0435,-0.04345 0.0435,-0.140882 0,-0.184329 -0.0435,-0.04345 -0.14088,-0.04345 -0.18433,0 -0.0435,0.04345 0,0.122888 0,0.184329 0,0.06144 -0.0435,0.140883 0,0.18433 0.0434,0.04345 0.14088,-0.04345 0.18433,0 0.0869,0.08689 -0.0869,0.281766 0,0.36866 0.0435,0.04345 0.14088,-0.04345 0.18433,0 0.0869,0.08689 -0.0869,0.281766 0,0.36866 0.0435,0.04345 0.14088,-0.04345 0.18433,0 0.0435,0.04345 0,0.245774 0,0.18433 0,-0.73732 0,-1.474639 0,-2.211959 0,-0.0447 0.006,-0.54706 0,-0.552987 -0.0435,-0.04345 -0.14088,0.04344 -0.18433,0 -0.0869,-0.08689 0.055,-0.258747 0,-0.36866 -0.0389,-0.07772 -0.14547,-0.106611 -0.18433,-0.18433 -0.0275,-0.05496 0.0435,-0.140883 0,-0.18433 -0.0377,-0.03768 -0.47991,0.03654 -0.55299,0 -0.0489,-0.02447 -0.52852,-0.50405 -0.55299,-0.55299 -0.0275,-0.05496 0.0434,-0.140882 0,-0.184329 -0.0435,-0.04345 -0.14088,0.04345 -0.18433,0 -0.0435,-0.04345 0.0435,-0.140883 0,-0.18433 -0.0435,-0.04345 -0.14088,0.04345 -0.18433,0 -0.0435,-0.04345 0,-0.122886 0,-0.18433 0,-0.06144 0,-0.122886 0,-0.18433 0,-0.130654 0.0238,-1.05832 0,-1.10598 -0.0389,-0.07772 -0.14547,-0.106608 -0.18433,-0.18433 -0.0275,-0.05496 0.0435,-0.140882 0,-0.184329 -0.30713,-0.307134 -0.0615,0.307136 -0.36866,0 -0.026,-0.02601 -0.0189,-0.515179 0,-0.55299 0.0389,-0.07772 0.14547,-0.106609 0.18433,-0.184327 0.0275,-0.05496 -0.0435,-0.140886 0,-0.18433 0.0435,-0.04345 0.14088,0.04344 0.18433,0 0.0435,-0.04345 0,-0.122889 0,-0.18433 0,-0.06144 0.0614,-0.18433 0,-0.18433 -0.0614,0 -0.0614,0.18433 0,0.18433 0.0135,0 -0.0169,-0.519168 0,-0.55299 0.0389,-0.07772 0.14547,-0.106611 0.18433,-0.18433 0.055,-0.109913 -0.0549,-0.258747 0,-0.36866 0.0389,-0.07772 0.14547,-0.106611 0.18433,-0.18433 0.0637,-0.127323 -0.0647,-0.856945 0,-0.921649 0.0435,-0.04345 0.14088,0.04345 0.18433,0 0.0571,-0.05708 -0.0571,-0.864571 0,-0.92165 0.0434,-0.04345 0.14088,0.04345 0.18433,0 0.0435,-0.04345 0.0435,-0.140883 0,-0.18433 -0.0435,-0.04345 -0.14088,0.04345 -0.18433,0 -0.0435,-0.04345 0.0275,-0.129373 0,-0.18433 -0.1106,-0.221194 -0.44239,-0.331792 -0.55299,-0.552987 -0.0275,-0.05496 0.0435,-0.140885 0,-0.18433 -0.0434,-0.04345 -0.14088,0.04345 -0.18433,0 -0.0184,-0.01844 -0.0184,-0.534559 0,-0.552989 0.0435,-0.04345 0.14088,0.04345 0.18433,0 0.0435,-0.04345 -0.0434,-0.140883 0,-0.18433 0.0435,-0.04345 0.14088,0.04345 0.18433,0 0.0435,-0.04345 -0.0435,-0.140883 0,-0.18433 0.0435,-0.04345 0.14088,0.04345 0.18433,0 0.0435,-0.04345 0,-0.122889 0,-0.18433 0,-0.06144 0,-0.122886 0,-0.18433 0,-0.55299 0,-1.10598 0,-1.658969 0,-0.36866 0,-0.73732 0,-1.10598 0,-0.06144 0.0435,-0.140882 0,-0.184327 -0.0435,-0.04345 -0.14088,0.04344 -0.18433,0 -0.0869,-0.08689 0.055,-0.258747 0,-0.36866 -0.0389,-0.07772 -0.14547,-0.106611 -0.18433,-0.18433 -0.0275,-0.05496 0.0435,-0.140883 0,-0.18433 -0.0434,-0.04345 -0.14088,0.04345 -0.18433,0 -0.0435,-0.04345 0,-0.122888 0,-0.18433 0,-0.08691 -0.008,-0.913296 0,-0.921649 0.0435,-0.04345 0.14088,0.04345 0.18433,0 0.0435,-0.04345 -0.0434,-0.140883 0,-0.18433 0.0435,-0.04345 0.12938,0.02748 0.18433,0 0.1968,-0.0984 0.17186,-0.270259 0.36866,-0.36866 0.055,-0.02748 0.12937,0.02748 0.18433,0 0.0777,-0.03886 0.10661,-0.145471 0.18433,-0.18433 0.055,-0.02748 0.12937,0.02748 0.18433,0 0.0777,-0.03886 0.1019,-0.15685 0.18433,-0.18433 0.11658,-0.03886 0.24577,0 0.36866,0 0.0614,0 0.18433,0.06144 0.18433,0 0,-0.06144 -0.12937,0.02748 -0.18433,0 -0.0777,-0.03886 -0.10661,-0.14547 -0.18433,-0.18433 -0.0731,-0.03654 -0.51531,0.03768 -0.55299,0 -0.0869,-0.08689 0.0869,-0.281765 0,-0.36866 -0.0434,-0.04345 -0.14088,0.04345 -0.18433,0 -0.0435,-0.04345 0,-0.122885 0,-0.184329 0,-0.06144 0,-0.122886 0,-0.18433 0,-0.128207 -0.0333,-0.854988 0,-0.921647 0.0389,-0.07772 0.14547,-0.106612 0.18433,-0.18433 0.0275,-0.05496 -0.0275,-0.129374 0,-0.18433 0.0777,-0.155443 0.29094,-0.21322 0.36866,-0.36866 0.0275,-0.05496 -0.0435,-0.140883 0,-0.18433 0.0435,-0.04345 0.12289,0 0.18433,0 0.0614,0 0.12289,0 0.18433,0 0.49154,0 -0.0614,0.06144 0.18433,-0.18433 0.0435,-0.04345 0.12288,0 0.18433,0 0.0614,0 0.12288,0 0.18433,0 0.0677,0 0.7299,0.0074 0.73732,0 0.0435,-0.04345 -0.0435,-0.140882 0,-0.18433 0.0435,-0.04345 0.14088,0.04345 0.18433,0 0.0435,-0.04345 -0.0434,-0.140882 0,-0.18433 0.0435,-0.04345 0.14088,0.04345 0.18433,0 0.0434,-0.04345 -0.0275,-0.129373 0,-0.18433 0.0389,-0.07772 0.14547,-0.106608 0.18433,-0.184329 0.0637,-0.127323 -0.0647,-0.856946 0,-0.92165 0.0434,-0.04345 0.14088,0.04345 0.18433,0 0.12522,-0.125219 -0.18848,-0.366588 0.18433,-0.55299 0.10991,-0.05496 0.28176,0.08689 0.36866,0 0.0434,-0.04345 0.0614,-0.18433 0,-0.18433 -0.0615,0 -0.0615,0.18433 0,0.18433 0.0594,0 0.26624,-0.317449 0.36866,-0.36866 0.055,-0.02748 0.12937,0.02748 0.18433,0 0.0777,-0.03886 0.10661,-0.145467 0.18432,-0.184329 0.0477,-0.02384 0.97533,0 1.10598,0 0.0615,0 0.14089,0.04345 0.18433,0 0.0435,-0.04345 -0.0434,-0.140883 0,-0.18433 0.0435,-0.04344 0.14089,0.04345 0.18433,0 0.0434,-0.04344 -0.0434,-0.140883 0,-0.184328 0.0434,-0.04345 0.14089,0.04345 0.18433,0 0.0435,-0.04345 -0.0434,-0.140885 0,-0.18433 0.0435,-0.04345 0.14089,0.04344 0.18433,0 0.0435,-0.04345 -0.0275,-0.129373 0,-0.18433 0.0389,-0.07772 0.14547,-0.106611 0.18433,-0.184329 0.0275,-0.05496 -0.0275,-0.129374 0,-0.18433 0.0389,-0.07772 0.14547,-0.106612 0.18433,-0.18433 0.0275,-0.05496 0,-0.122889 0,-0.18433 0.0615,-0.06144 0.14547,-0.106611 0.18433,-0.18433 0.0365,-0.07309 -0.0377,-0.515305 0,-0.55299 0.0434,-0.04345 0.14089,0.04345 0.18433,0 0.0869,-0.08689 -0.0549,-0.258746 0,-0.36866 0.0389,-0.07772 0.14547,-0.106608 0.18433,-0.18433 0.0365,-0.07308 -0.0377,-0.515305 0,-0.552989 0.0435,-0.04345 0.14089,0.04345 0.18433,0 0.0435,-0.04345 -0.0275,-0.129374 0,-0.18433 0.20379,-0.407562 0.11441,-0.0572 0.36866,-0.18433 0.15544,-0.07772 0.20379,-0.313703 0.36866,-0.36866 0.11658,-0.03886 0.25875,0.05496 0.36866,0 0.055,-0.02748 -0.0434,-0.140883 0,-0.18433 0.0869,-0.08689 0.28177,0.08689 0.36866,0 0.0435,-0.04344 -0.0434,-0.140883 0,-0.18433 0.0869,-0.08689 0.25875,0.05496 0.36866,0 0.0777,-0.03886 0.10661,-0.145468 0.18433,-0.18433 0.10991,-0.05495 0.28176,0.08689 0.36866,0 0.0435,-0.04344 -0.0435,-0.140882 0,-0.184327 0.0504,-0.05044 0.63732,0.05 0.73732,0 0.0777,-0.03886 0.10661,-0.145471 0.18433,-0.18433 0.055,-0.02748 0.14088,0.04344 0.18433,0 0.0435,-0.04345 -0.0434,-0.140883 0,-0.18433 0.0869,-0.08689 0.28176,0.08689 0.36866,0 0.0435,-0.04345 -0.0434,-0.140882 0,-0.18433 0.0869,-0.08689 0.25875,0.05496 0.36866,0 0.76713,-0.383569 -0.19706,0.01273 0.18433,-0.36866 0.0434,-0.04345 0.14088,0.04345 0.18433,0 0.0435,-0.04345 0,-0.122888 0,-0.184329 0,-0.06144 0,-0.122889 0,-0.18433 0,-0.130654 -0.0238,-1.05832 0,-1.10598 0.0389,-0.07772 0.14547,-0.106608 0.18433,-0.18433 0.055,-0.109913 -0.0869,-0.281765 0,-0.36866 0.0435,-0.04345 0.12288,0 0.18433,0 0,-0.06144 -0.0435,-0.140882 0,-0.18433 0.0434,-0.04345 0.14088,0.04345 0.18433,0 0.0435,-0.04345 -0.0435,-0.140882 0,-0.184329 0.0435,-0.04345 0.12937,0.02748 0.18433,0 0.0777,-0.03886 0.10661,-0.145468 0.18433,-0.18433 0.0549,-0.02748 0.14088,0.04345 0.18433,0 0.0434,-0.04345 -0.0434,-0.140883 0,-0.18433 0.0434,-0.04345 0.14088,0.04345 0.18433,0 0.0434,-0.04345 -0.0435,-0.140883 0,-0.18433 0.0434,-0.04344 0.12937,0.02748 0.18432,0 0.0777,-0.03886 0.10662,-0.145468 0.18433,-0.18433 0.055,-0.02748 0.14089,0.04345 0.18433,0 0.38139,-0.381384 -0.5828,0.0149 0.18433,-0.368657 0.055,-0.02748 0.14089,0.04344 0.18433,0 0.0435,-0.04345 -0.0275,-0.129374 0,-0.18433 0.0389,-0.07772 0.12289,-0.122889 0.18433,-0.18433 0.0615,-0.06144 0.10662,-0.145471 0.18433,-0.18433 0.055,-0.02748 0.14089,0.04345 0.18433,0 0.0435,-0.04345 -0.0275,-0.129373 0,-0.18433 0.0777,-0.15544 0.29094,-0.21322 0.36866,-0.36866 0.0275,-0.05496 -0.0434,-0.140882 0,-0.18433 0.0435,-0.04345 0.14089,0.04345 0.18433,0 0.0435,-0.04345 -0.0275,-0.129373 0,-0.18433 0.0389,-0.07772 0.14547,-0.106608 0.18433,-0.18433 0.0275,-0.05496 -0.0275,-0.129373 0,-0.184329 0.61135,-0.611347 -0.0869,0.173788 0.18433,-0.36866 0.0389,-0.07772 0.15685,-0.101894 0.18433,-0.18433 0,-0.839121 -0.0869,-0.01053 0.18433,-0.55299 0.055,-0.109913 -0.0869,-0.281765 0,-0.36866 0.0435,-0.04345 0.14089,0.04345 0.18433,0 0.0869,-0.08689 -0.0549,-0.258746 0,-0.36866 0.0777,-0.15544 0.29094,-0.213217 0.36866,-0.368659 0.0275,-0.05496 -0.0434,-0.140883 0,-0.184328 0.0435,-0.04345 0.14089,0.04344 0.18433,0 0.0435,-0.04345 -0.0434,-0.140885 0,-0.18433 0.0435,-0.04345 0.14089,0.04345 0.18433,0 0.0435,-0.04345 -0.0434,-0.140885 0,-0.184329 0.38139,-0.381387 -0.0149,0.582805 0.36866,-0.18433 0.0365,-0.07309 -0.0377,-0.515308 0,-0.55299 0.0434,-0.04345 0.14089,0.04345 0.18433,0 0.0435,-0.04345 0,-0.122889 0,-0.18433 0,-0.06144 0,-0.122888 0,-0.18433 0,-0.06769 -0.007,-0.729901 0,-0.73732 0.0435,-0.04345 0.14089,0.04345 0.18433,0 0.007,-0.0074 0,-0.669626 0,-0.737319 0,-0.06144 0.0434,-0.140883 0,-0.18433 -0.0434,-0.04345 -0.14088,0.04345 -0.18433,0 -0.0184,-0.01844 -0.0184,-0.534556 0,-0.55299 0.0435,-0.04345 0.14089,0.04345 0.18433,0 0.0434,-0.04345 -0.0434,-0.140883 0,-0.18433 0.0434,-0.04345 0.14089,0.04345 0.18433,0 0.0435,-0.04345 -0.0434,-0.140883 0,-0.18433 0.0435,-0.04344 0.14088,0.04345 0.18433,0 0.0435,-0.04344 -0.0434,-0.140882 0,-0.18433 0.0435,-0.04344 0.14088,0.04345 0.18433,0 0.0434,-0.04344 -0.0275,-0.129373 0,-0.184327 0.0389,-0.07772 0.14547,-0.106611 0.18433,-0.18433 0.0275,-0.05496 -0.0435,-0.140885 0,-0.18433 0.0435,-0.04345 0.14088,0.04344 0.18433,0 0.0434,-0.04345 -0.0435,-0.140882 0,-0.18433 0.0434,-0.04345 0.14088,0.04345 0.18433,0 0.0869,-0.08689 -0.0869,-0.281765 0,-0.36866 0.0435,-0.04345 0.14088,0.04345 0.18433,0 0.0435,-0.04345 -0.0434,-0.140882 0,-0.184329 0.0435,-0.04345 0.14088,0.04345 0.18433,0 0.0434,-0.04345 -0.0275,-0.129374 0,-0.18433 0.0389,-0.07772 0.14547,-0.106612 0.18433,-0.18433 0.0275,-0.05496 -0.0435,-0.140883 0,-0.18433 0.0435,-0.04345 0.12937,0.02748 0.18433,0 0.0777,-0.03886 0.10661,-0.145471 0.18433,-0.18433 0.10991,-0.05496 0.28176,0.08689 0.36866,0 0.0434,-0.04345 -0.0435,-0.140883 0,-0.18433 0.0434,-0.04345 0.14088,0.04345 0.18433,0 0.0435,-0.04345 -0.0435,-0.140883 0,-0.18433 0.0869,-0.08689 0.28176,0.08689 0.36866,0 0.0435,-0.04345 -0.0435,-0.140883 0,-0.18433 0.0869,-0.08689 0.28176,0.08689 0.36866,0 0.0869,-0.08689 -0.0869,-0.281765 0,-0.36866 0.0435,-0.04345 0.14088,0.04345 0.18433,0 0.0869,-0.08689 -0.0869,-0.281765 0,-0.36866 0.0435,-0.04345 0.14088,0.04345 0.18433,0 0.0434,-0.04345 -0.0275,-0.129373 0,-0.184329 0.0389,-0.07772 0.14547,-0.106609 0.18433,-0.18433 0.055,-0.109914 -0.0869,-0.281766 0,-0.36866 0.0434,-0.04345 0.14088,0.04345 0.18433,0 0.0434,-0.04345 0,-0.122886 0,-0.18433 0,-0.06144 0,-0.122886 0,-0.18433 0,-0.130651 -0.0238,-1.05832 0,-1.105977 0.0389,-0.07772 0.14547,-0.106611 0.18433,-0.18433 0.0275,-0.05496 -0.0435,-0.140882 0,-0.18433 0.0869,-0.08689 0.25874,0.05496 0.36866,0 0.0777,-0.03886 0.10661,-0.14547 0.18433,-0.18433 0.10991,-0.05496 0.28176,0.0869 0.36866,0 0.0434,-0.04345 -0.0435,-0.140882 0,-0.184329 0.0434,-0.04345 0.14088,0.04345 0.18433,0 0.0869,-0.08689 -0.0869,-0.281766 0,-0.36866 0.0434,-0.04345 0.14088,0.04345 0.18433,0 0.0434,-0.04345 0,-0.122886 0,-0.18433 0,-0.484823 -0.14797,0.07274 -0.36866,-0.36866 -0.0275,-0.05496 0.0434,-0.140883 0,-0.18433 -0.0435,-0.04345 -0.14089,0.04345 -0.18433,0 -0.026,-0.02598 -0.0189,-0.515178 0,-0.55299 0.0389,-0.07772 0.14547,-0.106608 0.18433,-0.18433 0.0275,-0.05496 -0.0435,-0.140882 0,-0.18433 0.0434,-0.04345 0.14088,0.04345 0.18433,0 0.0504,-0.05043 -0.05,-0.63732 0,-0.737317 0.0389,-0.07772 0.14547,-0.106611 0.18433,-0.184329 0.0549,-0.109914 -0.0869,-0.281768 0,-0.36866 0.0869,-0.0869 0.28176,0.08689 0.36865,0 0.0435,-0.04345 -0.0434,-0.140883 0,-0.18433 0.006,-0.0059 0.50829,0 0.55299,0"
                id="path1"
        />
    </g>
</svg>
